<svg xmlns="http://www.w3.org/2000/svg" viewBox="0 0 2048 2048" width="2048" height="2048">
  <path fill="#000000" fill-rule="nonzero" d="M1019.50,1910.77 C1015.60,1909.45 1013.52,1908.46 1007.74,1905.19 C1005.13,1903.71 1000.18,1901.00 996.74,1899.17 C993.31,1897.34 988.70,1894.54 986.50,1892.96 C984.30,1891.37 980.70,1889.10 978.50,1887.92 C976.30,1886.74 973.83,1885.20 973.00,1884.51 C972.17,1883.82 968.58,1881.70 965.00,1879.82 C961.42,1877.93 956.55,1875.15 954.17,1873.63 C951.79,1872.12 949.09,1870.60 948.17,1870.27 C947.25,1869.93 945.23,1868.61 943.67,1867.33 C942.12,1866.05 940.47,1865.00 940.01,1865.00 C939.55,1865.00 936.78,1863.42 933.86,1861.50 C930.94,1859.58 928.17,1858.00 927.71,1858.00 C927.24,1858.00 925.39,1856.88 923.59,1855.50 C921.79,1854.12 919.94,1853.00 919.48,1853.00 C919.03,1853.00 917.95,1852.38 917.08,1851.61 C916.21,1850.85 913.17,1849.02 910.31,1847.54 C907.46,1846.06 904.62,1844.24 903.99,1843.49 C903.37,1842.74 901.57,1841.85 900.00,1841.50 C898.43,1841.15 896.60,1840.23 895.95,1839.44 C895.29,1838.65 894.27,1838.00 893.68,1838.00 C893.09,1838.00 891.01,1836.94 889.05,1835.64 C887.10,1834.35 883.48,1832.09 881.00,1830.63 C878.52,1829.17 873.58,1826.12 870.00,1823.85 C866.42,1821.59 861.83,1818.78 859.78,1817.62 C857.74,1816.45 851.66,1812.89 846.28,1809.70 C834.27,1802.58 834.08,1802.47 831.00,1801.10 C829.62,1800.49 824.90,1797.76 820.50,1795.04 C816.10,1792.32 812.01,1790.07 811.40,1790.04 C810.80,1790.02 809.51,1789.11 808.52,1788.03 C807.54,1786.94 805.88,1785.78 804.84,1785.45 C803.80,1785.12 800.60,1783.31 797.74,1781.42 C794.88,1779.54 792.17,1778.00 791.71,1778.00 C791.24,1778.00 789.43,1776.99 787.68,1775.75 C784.07,1773.19 782.70,1772.34 775.00,1767.88 C771.98,1766.12 768.80,1764.10 767.95,1763.37 C767.10,1762.65 764.22,1760.90 761.55,1759.48 C754.27,1755.60 749.05,1752.62 743.50,1749.16 C740.75,1747.44 737.45,1745.58 736.17,1745.01 C734.90,1744.45 731.89,1742.64 729.49,1741.00 C727.10,1739.35 724.69,1738.00 724.15,1738.00 C723.60,1738.00 721.88,1736.95 720.33,1735.67 C716.91,1732.86 704.58,1725.85 687.50,1716.98 C679.54,1712.86 667.23,1705.67 657.50,1699.46 C653.65,1697.00 649.15,1694.30 647.50,1693.44 C642.60,1690.91 638.11,1688.33 636.76,1687.28 C636.07,1686.73 633.02,1684.94 630.00,1683.29 C622.73,1679.32 608.13,1670.55 605.05,1668.29 C603.70,1667.31 601.22,1665.78 599.55,1664.90 C597.87,1664.02 593.58,1661.58 590.00,1659.47 C586.42,1657.37 580.15,1653.91 576.05,1651.79 C571.95,1649.67 567.90,1647.33 567.05,1646.58 C565.67,1645.38 562.37,1643.51 551.56,1637.83 C549.81,1636.91 547.79,1635.45 547.07,1634.58 C546.35,1633.71 545.34,1633.00 544.83,1633.00 C544.33,1633.00 541.27,1631.31 538.04,1629.25 C530.99,1624.74 527.82,1622.91 518.00,1617.69 C513.88,1615.50 509.23,1612.64 507.67,1611.35 C506.12,1610.06 504.35,1609.00 503.75,1609.00 C503.15,1609.00 501.95,1608.37 501.08,1607.60 C499.57,1606.27 491.75,1601.80 483.81,1597.74 C481.78,1596.70 479.59,1595.21 478.94,1594.43 C478.29,1593.64 477.29,1593.00 476.72,1593.00 C476.14,1593.00 473.43,1591.56 470.69,1589.80 C467.95,1588.04 464.42,1585.90 462.86,1585.05 C461.30,1584.20 455.50,1580.80 449.97,1577.50 C435.54,1568.88 431.22,1566.39 424.80,1563.02 C421.66,1561.37 417.39,1559.04 415.30,1557.84 C413.21,1556.64 409.93,1554.82 408.00,1553.79 C406.07,1552.76 403.09,1550.92 401.36,1549.71 C399.63,1548.49 396.74,1546.60 394.94,1545.50 C393.14,1544.40 390.05,1542.50 388.08,1541.27 C386.11,1540.04 383.38,1538.49 382.00,1537.81 C379.83,1536.75 372.60,1532.58 360.62,1525.50 C356.59,1523.12 344.92,1516.54 340.00,1513.87 C338.07,1512.83 333.35,1509.95 329.50,1507.47 C325.65,1504.99 321.38,1502.49 320.00,1501.91 C318.63,1501.33 316.67,1500.11 315.66,1499.19 C313.73,1497.45 307.29,1493.54 300.50,1490.00 C298.30,1488.85 294.70,1486.82 292.50,1485.49 C290.30,1484.16 285.97,1481.73 282.88,1480.09 C279.79,1478.45 276.08,1475.70 274.63,1473.98 L272.00,1470.85 L272.00,1025.53 C272.00,602.91 272.09,580.11 273.75,578.08 C274.71,576.89 279.21,574.03 283.75,571.71 C293.27,566.85 320.16,550.67 324.33,547.29 C325.88,546.03 327.61,545.00 328.16,545.00 C328.71,545.00 331.49,543.53 334.33,541.74 C337.17,539.94 340.40,537.94 341.50,537.29 C342.60,536.63 347.77,533.57 353.00,530.47 C367.04,522.16 369.02,520.96 374.50,517.43 C377.25,515.66 381.98,512.95 385.00,511.41 C388.02,509.86 391.62,507.85 393.00,506.94 C394.38,506.03 398.65,503.47 402.50,501.27 C418.79,491.93 427.75,486.59 431.66,483.88 C433.95,482.30 436.09,481.00 436.41,481.00 C436.73,481.00 439.19,479.42 441.87,477.50 C444.55,475.57 447.32,474.00 448.04,474.00 C448.75,474.00 452.52,472.03 456.42,469.62 C460.31,467.21 465.45,464.17 467.84,462.87 C476.50,458.14 478.16,457.16 481.80,454.67 C492.00,447.69 514.04,435.03 516.03,435.01 C516.87,435.01 520.57,432.86 524.25,430.25 C532.16,424.64 542.10,418.26 547.00,415.65 C548.92,414.62 551.17,413.20 552.00,412.49 C552.83,411.78 555.08,410.48 557.00,409.59 C558.92,408.71 562.30,406.90 564.50,405.58 C566.70,404.25 570.65,402.01 573.28,400.61 C581.93,395.98 592.36,389.74 601.19,383.91 C605.97,380.75 610.88,377.85 612.10,377.47 C613.33,377.08 616.45,375.24 619.03,373.38 C621.62,371.52 624.00,370.00 624.33,370.00 C624.65,370.00 627.75,368.20 631.21,366.01 C634.67,363.81 638.22,362.01 639.10,362.01 C639.98,362.00 642.61,360.62 644.93,358.93 C649.17,355.87 651.63,354.26 657.90,350.50 C659.73,349.40 664.89,346.30 669.36,343.61 C673.84,340.93 679.52,337.60 682.00,336.22 C684.48,334.84 687.69,332.88 689.15,331.86 C690.61,330.84 692.11,330.00 692.47,330.00 C692.84,330.00 694.57,328.93 696.32,327.62 C698.07,326.31 703.10,323.33 707.50,321.00 C711.90,318.67 716.21,316.14 717.08,315.38 C717.95,314.62 719.12,314.00 719.69,314.00 C720.26,314.00 721.80,313.16 723.12,312.13 C724.43,311.11 727.75,309.05 730.50,307.56 C733.25,306.08 742.02,300.86 750.00,295.97 C757.98,291.08 769.17,284.47 774.88,281.29 C780.59,278.10 786.89,274.51 788.88,273.30 C790.87,272.09 793.62,270.54 795.00,269.85 C796.38,269.16 802.67,265.23 809.00,261.11 C815.33,257.00 822.11,252.58 824.07,251.30 C826.04,250.02 830.22,248.07 833.37,246.96 C836.52,245.86 841.88,242.96 845.29,240.54 C848.71,238.11 855.55,233.79 860.50,230.94 C865.45,228.09 870.77,224.68 872.33,223.38 C873.88,222.07 875.61,221.00 876.16,221.00 C876.71,221.00 879.49,219.50 882.33,217.67 C892.22,211.31 893.53,210.54 898.01,208.44 C900.49,207.27 905.59,204.45 909.36,202.16 C913.12,199.87 916.54,198.00 916.95,198.00 C917.36,198.00 918.49,197.11 919.48,196.03 C920.46,194.94 922.21,193.75 923.36,193.39 C924.51,193.02 927.71,191.31 930.47,189.58 C933.24,187.85 936.22,186.00 937.10,185.47 C937.98,184.93 940.68,183.18 943.10,181.57 C945.52,179.96 952.00,176.35 957.50,173.54 C963.00,170.73 970.63,166.42 974.45,163.97 C984.36,157.59 987.86,155.48 993.28,152.59 C1000.65,148.68 1012.11,142.03 1016.04,139.39 C1017.99,138.09 1021.59,136.76 1024.04,136.45 C1028.12,135.93 1029.09,136.28 1035.50,140.56 C1039.35,143.13 1048.35,148.39 1055.50,152.26 C1062.65,156.12 1071.65,161.37 1075.50,163.93 C1079.35,166.48 1083.62,169.14 1085.00,169.84 C1091.59,173.16 1094.14,174.61 1102.50,179.74 C1107.45,182.79 1113.08,186.29 1115.00,187.53 C1116.92,188.77 1120.59,190.92 1123.15,192.32 C1125.71,193.71 1129.68,196.03 1131.97,197.48 C1137.07,200.70 1140.90,202.90 1152.50,209.28 C1162.95,215.03 1170.94,219.82 1182.75,227.41 C1184.81,228.74 1188.08,230.65 1190.00,231.66 C1191.93,232.67 1194.86,234.45 1196.50,235.62 C1198.15,236.78 1204.45,240.36 1210.50,243.57 C1216.55,246.77 1226.98,252.88 1233.67,257.14 C1240.37,261.39 1251.17,267.90 1257.67,271.61 C1264.18,275.31 1270.62,279.10 1272.00,280.02 C1273.38,280.95 1278.10,283.63 1282.50,285.99 C1286.90,288.34 1291.17,290.81 1292.00,291.47 C1293.65,292.79 1307.93,301.00 1308.58,301.00 C1308.80,301.00 1312.02,302.93 1315.74,305.30 C1319.46,307.66 1328.35,312.86 1335.50,316.85 C1342.65,320.84 1352.33,326.73 1357.00,329.95 C1361.67,333.16 1369.78,338.05 1375.00,340.81 C1386.54,346.91 1395.64,352.20 1399.00,354.77 C1401.19,356.45 1413.50,363.54 1424.00,369.16 C1425.92,370.19 1430.88,373.18 1435.00,375.80 C1439.12,378.42 1448.25,383.93 1455.27,388.03 C1475.14,399.64 1476.21,400.28 1482.32,404.00 C1491.49,409.58 1494.37,411.28 1501.13,415.08 C1504.64,417.05 1515.00,423.01 1524.17,428.33 C1533.34,433.65 1541.07,438.00 1541.35,438.00 C1541.63,438.00 1545.15,440.16 1549.18,442.80 C1556.76,447.78 1559.16,449.28 1569.80,455.70 C1573.26,457.79 1577.76,460.51 1579.80,461.74 C1581.83,462.98 1584.85,464.63 1586.50,465.41 C1588.15,466.19 1591.33,468.17 1593.57,469.79 C1595.81,471.42 1598.72,473.09 1600.04,473.51 C1601.37,473.93 1606.06,476.60 1610.47,479.43 C1617.66,484.05 1639.58,497.09 1646.74,501.01 C1657.31,506.79 1673.25,516.20 1683.00,522.40 C1689.33,526.43 1698.33,531.82 1703.00,534.38 C1707.67,536.95 1712.17,539.46 1713.00,539.97 C1713.83,540.47 1721.03,544.90 1729.00,549.81 C1736.97,554.72 1745.30,559.71 1747.50,560.90 C1749.70,562.09 1755.55,565.51 1760.50,568.51 C1765.45,571.51 1770.22,573.97 1771.10,573.98 C1771.97,573.99 1773.53,574.92 1774.55,576.05 C1776.09,577.76 1776.54,580.65 1777.23,593.30 C1777.68,601.66 1777.92,802.49 1777.75,1039.58 C1777.47,1435.94 1777.32,1470.86 1775.82,1473.15 C1774.93,1474.52 1766.61,1480.02 1757.35,1485.38 C1748.08,1490.73 1737.35,1497.12 1733.50,1499.56 C1729.65,1502.01 1725.15,1504.69 1723.50,1505.54 C1721.85,1506.38 1718.70,1508.16 1716.50,1509.50 C1714.30,1510.83 1710.70,1512.89 1708.50,1514.08 C1706.30,1515.26 1703.07,1517.30 1701.32,1518.61 C1699.57,1519.93 1697.83,1521.00 1697.46,1521.00 C1696.90,1521.00 1686.44,1526.98 1668.25,1537.71 C1666.19,1538.93 1662.70,1540.89 1660.50,1542.08 C1658.30,1543.26 1655.15,1545.21 1653.50,1546.41 C1651.85,1547.61 1647.12,1550.54 1643.00,1552.93 C1625.25,1563.20 1616.06,1568.60 1609.50,1572.60 C1605.65,1574.95 1601.38,1577.37 1600.00,1577.98 C1597.61,1579.04 1594.72,1580.71 1577.24,1591.10 C1570.81,1594.93 1559.12,1601.64 1546.00,1609.04 C1544.62,1609.82 1541.30,1611.79 1538.60,1613.43 C1535.91,1615.06 1532.42,1617.10 1530.86,1617.95 C1529.30,1618.80 1523.51,1622.20 1518.00,1625.50 C1512.49,1628.80 1506.75,1632.19 1505.24,1633.04 C1501.50,1635.14 1494.33,1639.63 1489.50,1642.89 C1487.30,1644.38 1483.47,1646.45 1481.00,1647.50 C1478.53,1648.54 1475.38,1650.14 1474.00,1651.04 C1472.62,1651.95 1469.01,1654.04 1465.97,1655.69 C1462.93,1657.34 1457.53,1660.49 1453.97,1662.69 C1450.41,1664.90 1443.78,1668.90 1439.23,1671.60 C1434.69,1674.29 1428.16,1678.18 1424.73,1680.24 C1418.84,1683.77 1416.63,1684.99 1409.50,1688.59 C1405.44,1690.64 1405.17,1690.80 1391.50,1699.26 C1384.90,1703.34 1375.99,1708.66 1371.69,1711.09 C1367.39,1713.52 1362.22,1716.49 1360.19,1717.71 C1358.16,1718.92 1354.92,1720.75 1353.00,1721.76 C1346.85,1724.99 1336.74,1730.93 1328.50,1736.15 C1324.10,1738.94 1317.80,1742.69 1314.50,1744.49 C1304.23,1750.09 1296.23,1754.75 1290.76,1758.29 C1287.87,1760.17 1281.67,1763.82 1277.00,1766.39 C1272.33,1768.97 1265.35,1773.10 1261.50,1775.56 C1257.65,1778.02 1253.15,1780.72 1251.50,1781.55 C1249.85,1782.39 1246.87,1784.07 1244.88,1785.29 C1242.89,1786.50 1238.24,1789.30 1234.54,1791.50 C1230.83,1793.70 1226.16,1796.48 1224.15,1797.69 C1222.14,1798.89 1218.03,1801.25 1215.00,1802.94 C1211.97,1804.63 1207.37,1807.25 1204.77,1808.76 C1202.17,1810.27 1194.30,1814.84 1187.27,1818.91 C1180.25,1822.99 1172.70,1827.74 1170.50,1829.46 C1168.30,1831.19 1163.80,1833.91 1160.50,1835.52 C1157.20,1837.12 1153.15,1839.53 1151.51,1840.86 C1149.86,1842.19 1146.71,1844.12 1144.51,1845.15 C1142.30,1846.19 1138.84,1848.03 1136.81,1849.26 C1132.71,1851.75 1121.39,1858.20 1116.00,1861.13 C1114.08,1862.18 1109.80,1864.82 1106.50,1867.00 C1103.20,1869.18 1098.92,1871.69 1097.00,1872.58 C1095.08,1873.47 1092.83,1874.78 1092.00,1875.48 C1091.17,1876.19 1089.41,1877.10 1088.08,1877.50 C1085.58,1878.27 1079.81,1881.77 1067.30,1890.11 C1063.33,1892.75 1058.38,1895.85 1056.30,1896.99 C1054.21,1898.14 1050.85,1900.07 1048.84,1901.29 C1030.43,1912.43 1027.35,1913.43 1019.50,1910.77 Z M1032.88,1863.81 C1035.97,1862.06 1039.62,1859.87 1041.00,1858.94 C1042.38,1858.01 1045.68,1855.96 1048.34,1854.38 C1051.00,1852.79 1054.82,1850.50 1056.84,1849.28 C1060.12,1847.30 1066.55,1843.64 1075.16,1838.84 C1076.80,1837.93 1078.89,1836.54 1079.82,1835.76 C1080.74,1834.97 1083.30,1833.43 1085.50,1832.33 C1091.62,1829.28 1099.02,1825.12 1104.00,1821.94 C1106.47,1820.36 1110.97,1817.68 1114.00,1816.00 C1117.03,1814.32 1121.53,1811.63 1124.00,1810.03 C1126.47,1808.42 1131.20,1805.69 1134.50,1803.95 C1137.79,1802.21 1142.74,1799.29 1145.50,1797.46 C1148.25,1795.63 1151.62,1793.67 1153.00,1793.09 C1154.38,1792.51 1158.65,1790.02 1162.50,1787.55 C1166.35,1785.08 1172.88,1781.18 1177.00,1778.87 C1181.12,1776.56 1185.83,1773.75 1187.45,1772.63 C1189.07,1771.50 1191.77,1769.84 1193.45,1768.93 C1196.61,1767.22 1205.39,1762.13 1211.80,1758.29 C1213.84,1757.07 1217.29,1755.10 1219.48,1753.90 C1221.67,1752.71 1225.14,1750.61 1227.19,1749.26 C1230.79,1746.87 1234.17,1744.93 1240.50,1741.59 C1242.15,1740.72 1246.20,1738.25 1249.50,1736.10 C1259.31,1729.69 1279.89,1718.00 1281.35,1718.00 C1282.09,1718.00 1286.48,1715.59 1291.10,1712.64 C1295.72,1709.69 1305.12,1704.00 1312.00,1700.00 C1318.88,1696.01 1327.79,1690.72 1331.82,1688.25 C1335.84,1685.79 1342.14,1682.10 1345.82,1680.05 C1349.49,1678.01 1354.08,1675.42 1356.00,1674.31 C1368.53,1667.03 1373.07,1664.33 1377.50,1661.50 C1382.27,1658.46 1386.82,1655.73 1396.93,1649.84 C1399.44,1648.37 1404.65,1645.53 1408.50,1643.53 C1412.35,1641.53 1418.65,1637.91 1422.50,1635.49 C1426.35,1633.07 1440.21,1624.88 1453.31,1617.30 C1466.40,1609.71 1478.63,1602.60 1480.49,1601.50 C1482.34,1600.40 1488.39,1596.80 1493.93,1593.50 C1499.48,1590.20 1505.30,1586.80 1506.86,1585.95 C1508.42,1585.10 1511.91,1583.06 1514.60,1581.42 C1517.30,1579.78 1520.85,1577.66 1522.50,1576.71 C1533.67,1570.25 1545.17,1563.50 1549.00,1561.14 C1551.47,1559.61 1556.16,1556.91 1559.42,1555.12 C1562.68,1553.34 1567.63,1550.39 1570.42,1548.57 C1573.21,1546.75 1577.68,1543.97 1580.34,1542.38 C1583.00,1540.80 1586.83,1538.51 1588.84,1537.30 C1590.85,1536.10 1596.10,1533.29 1600.50,1531.07 C1608.46,1527.04 1615.78,1522.94 1624.12,1517.81 C1626.53,1516.32 1630.97,1513.71 1634.00,1511.99 C1639.93,1508.63 1642.34,1507.20 1655.15,1499.45 C1659.74,1496.68 1664.62,1493.87 1666.00,1493.21 C1667.38,1492.55 1669.17,1491.58 1670.00,1491.04 C1671.28,1490.21 1688.19,1480.40 1697.39,1475.15 C1698.97,1474.24 1702.51,1472.04 1705.24,1470.25 C1707.97,1468.46 1711.62,1466.32 1713.35,1465.49 C1715.08,1464.67 1717.85,1462.90 1719.50,1461.56 C1721.98,1459.56 1722.31,1458.82 1721.41,1457.32 C1720.32,1455.49 1715.49,1452.40 1709.04,1449.41 C1707.14,1448.52 1701.06,1444.80 1695.54,1441.13 C1690.02,1437.46 1684.38,1433.88 1683.00,1433.18 C1681.62,1432.48 1678.70,1430.82 1676.50,1429.49 C1674.30,1428.16 1670.03,1425.70 1667.00,1424.03 C1660.44,1420.40 1655.44,1417.49 1641.96,1409.50 C1636.40,1406.20 1630.19,1402.55 1628.17,1401.38 C1626.15,1400.22 1621.58,1397.43 1618.00,1395.19 C1614.42,1392.95 1607.67,1388.81 1603.00,1385.98 C1598.33,1383.16 1592.38,1379.42 1589.78,1377.67 C1587.19,1375.93 1582.74,1373.15 1579.89,1371.50 C1577.04,1369.85 1573.10,1367.09 1571.14,1365.36 L1567.57,1362.22 L1566.84,1335.86 C1566.44,1321.36 1566.13,1296.86 1566.16,1281.41 C1566.21,1258.22 1565.95,1252.81 1564.71,1250.41 C1563.31,1247.72 1539.16,1224.79 1535.67,1222.84 C1534.83,1222.36 1522.36,1221.73 1507.97,1221.42 L1481.81,1220.87 L1478.06,1224.93 L1474.31,1229.00 L1445.06,1229.26 C1417.51,1229.51 1415.74,1229.64 1414.41,1231.45 C1412.58,1233.95 1412.46,1247.53 1414.25,1248.69 C1414.94,1249.14 1429.00,1249.95 1445.50,1250.50 L1475.50,1251.50 L1477.53,1255.73 C1481.10,1263.16 1478.56,1262.57 1508.79,1262.96 C1530.18,1263.24 1529.81,1263.05 1530.25,1274.21 C1530.62,1283.83 1529.29,1285.00 1517.97,1285.00 C1512.78,1285.00 1507.53,1284.39 1505.00,1283.50 C1502.34,1282.56 1497.12,1282.00 1491.07,1282.00 L1481.39,1282.00 L1478.00,1285.50 L1474.61,1289.00 L1445.80,1289.00 C1411.55,1289.00 1413.00,1288.52 1413.00,1299.93 C1413.00,1310.58 1411.14,1310.00 1445.42,1310.00 C1478.02,1310.00 1476.05,1309.59 1479.84,1317.18 L1481.50,1320.50 L1503.57,1320.12 L1525.64,1319.73 L1527.68,1322.32 C1529.60,1324.76 1529.75,1326.68 1530.24,1354.21 C1530.53,1370.43 1531.22,1384.64 1531.79,1386.06 C1532.94,1388.97 1559.83,1418.19 1563.65,1420.69 C1565.99,1422.22 1566.54,1422.18 1572.61,1420.04 C1579.89,1417.47 1584.89,1417.67 1593.68,1420.88 C1604.47,1424.83 1611.01,1432.58 1613.43,1444.30 C1614.89,1451.40 1614.89,1452.55 1613.37,1458.76 C1609.04,1476.47 1592.28,1486.85 1575.13,1482.46 C1563.64,1479.51 1554.67,1470.95 1551.32,1459.74 C1550.13,1455.73 1549.92,1452.23 1550.42,1444.85 L1551.08,1435.20 L1542.83,1427.85 C1524.55,1411.55 1513.74,1400.49 1511.71,1396.00 C1509.90,1392.00 1509.60,1388.75 1509.08,1366.80 C1508.67,1349.48 1508.14,1341.74 1507.29,1340.89 C1506.45,1340.05 1502.35,1339.75 1493.83,1339.91 C1487.10,1340.03 1481.24,1340.35 1480.81,1340.62 C1480.38,1340.88 1479.66,1342.54 1479.20,1344.30 C1477.79,1349.74 1476.39,1349.97 1444.45,1349.99 C1423.21,1350.00 1415.08,1350.32 1414.20,1351.20 C1413.39,1352.01 1412.98,1356.94 1412.93,1366.45 C1412.89,1374.18 1412.55,1383.88 1412.17,1388.01 C1411.49,1395.42 1411.43,1395.56 1406.54,1400.01 C1403.82,1402.48 1394.88,1411.36 1386.66,1419.75 C1378.45,1428.13 1368.34,1438.03 1364.19,1441.75 L1356.65,1448.50 L1337.88,1449.00 C1327.38,1449.28 1318.67,1449.94 1318.13,1450.50 C1317.56,1451.08 1316.97,1464.57 1316.71,1482.94 C1316.26,1514.03 1316.23,1514.39 1314.02,1516.19 C1312.08,1517.75 1309.78,1518.00 1297.09,1518.00 C1287.00,1518.00 1282.02,1517.62 1281.20,1516.80 C1280.32,1515.92 1280.00,1507.31 1280.00,1484.30 C1280.00,1454.33 1279.91,1452.91 1278.00,1451.00 C1275.44,1448.44 1267.51,1448.23 1264.83,1450.65 C1263.13,1452.19 1263.00,1454.52 1263.00,1482.56 L1263.00,1512.81 L1259.50,1517.00 C1256.12,1521.04 1256.00,1521.47 1256.00,1529.44 C1256.00,1536.92 1256.27,1538.07 1258.83,1541.60 C1262.13,1546.14 1300.13,1582.93 1303.34,1584.68 C1305.11,1585.66 1306.08,1585.53 1308.71,1583.99 C1313.20,1581.37 1323.00,1579.63 1329.83,1580.25 C1342.95,1581.44 1352.93,1589.26 1357.02,1601.57 C1359.36,1608.61 1359.34,1613.37 1356.90,1623.00 C1354.96,1630.68 1346.61,1638.93 1337.78,1641.92 C1323.14,1646.86 1308.13,1642.31 1299.98,1630.47 C1296.60,1625.55 1293.06,1613.82 1293.02,1607.38 C1293.00,1603.74 1292.44,1602.75 1288.25,1598.95 C1271.04,1583.36 1245.52,1559.01 1241.40,1554.23 L1236.50,1548.56 L1236.00,1534.14 C1235.47,1518.79 1235.82,1519.84 1230.25,1517.16 C1226.59,1515.40 1226.14,1512.08 1225.43,1481.50 C1225.04,1464.32 1224.31,1450.97 1223.75,1450.25 C1222.46,1448.62 1210.82,1448.58 1209.20,1450.20 C1208.32,1451.08 1208.00,1459.59 1208.00,1482.25 L1208.00,1513.09 L1205.55,1515.55 C1204.20,1516.90 1202.64,1518.00 1202.09,1518.00 C1200.20,1518.00 1199.01,1525.53 1199.02,1537.50 C1199.03,1557.79 1196.73,1553.90 1226.15,1583.56 C1243.14,1600.68 1252.00,1610.32 1252.00,1611.67 C1252.00,1614.82 1244.09,1624.00 1241.39,1624.00 C1239.79,1624.00 1231.52,1616.66 1213.28,1599.06 C1199.07,1585.35 1185.87,1572.18 1183.97,1569.81 L1180.50,1565.50 L1180.00,1542.33 C1179.72,1529.59 1179.28,1518.96 1179.00,1518.72 C1178.72,1518.47 1177.17,1517.85 1175.55,1517.32 C1173.57,1516.68 1172.37,1515.46 1171.86,1513.56 C1171.45,1512.02 1170.81,1497.88 1170.44,1482.13 C1169.65,1448.28 1169.85,1449.00 1161.10,1449.00 C1157.51,1449.00 1154.83,1449.50 1154.16,1450.30 C1153.45,1451.16 1152.98,1462.49 1152.79,1483.39 C1152.47,1518.40 1152.95,1515.71 1146.37,1519.61 C1144.65,1520.62 1144.47,1522.46 1144.19,1541.80 C1143.94,1559.06 1144.16,1563.39 1145.39,1565.69 C1146.21,1567.24 1151.68,1573.67 1157.54,1580.00 C1163.40,1586.33 1169.92,1593.75 1172.03,1596.50 L1175.85,1601.50 L1176.56,1633.00 C1176.94,1650.33 1177.63,1665.22 1178.09,1666.11 C1178.55,1667.00 1181.48,1669.02 1184.61,1670.60 C1194.78,1675.75 1199.89,1685.13 1199.96,1698.78 C1199.99,1705.97 1199.62,1707.81 1197.10,1712.78 C1189.96,1726.90 1177.23,1732.94 1160.19,1730.30 C1147.57,1728.35 1138.92,1720.24 1135.09,1706.78 C1133.39,1700.81 1133.39,1700.15 1135.02,1693.40 C1135.97,1689.49 1137.94,1684.25 1139.41,1681.74 C1142.38,1676.67 1150.18,1669.00 1152.36,1669.00 C1156.05,1669.00 1156.32,1666.72 1156.09,1637.21 C1155.90,1612.23 1155.65,1608.16 1154.19,1605.86 C1153.26,1604.40 1146.51,1597.06 1139.20,1589.54 C1131.88,1582.02 1125.47,1574.74 1124.95,1573.37 C1124.43,1571.99 1124.00,1559.44 1124.00,1545.47 C1124.00,1526.38 1123.69,1519.82 1122.75,1519.04 C1122.06,1518.47 1120.38,1517.14 1119.00,1516.09 L1116.50,1514.18 L1116.21,1482.89 C1116.02,1462.36 1115.54,1451.16 1114.84,1450.30 C1113.37,1448.53 1102.93,1448.60 1100.48,1450.39 C1098.71,1451.69 1098.56,1453.64 1098.26,1480.14 C1098.08,1495.74 1097.71,1509.95 1097.43,1511.73 C1097.11,1513.72 1095.50,1516.29 1093.21,1518.45 L1089.50,1521.95 L1089.19,1551.54 C1088.91,1579.07 1089.02,1581.34 1090.77,1584.10 C1091.80,1585.73 1097.79,1592.51 1104.07,1599.17 C1117.68,1613.59 1118.63,1615.06 1116.94,1619.14 C1115.43,1622.78 1111.35,1625.00 1106.16,1625.00 C1102.56,1625.00 1101.35,1624.19 1092.35,1615.75 C1075.40,1599.84 1073.15,1597.53 1072.19,1594.98 C1071.68,1593.62 1070.94,1576.75 1070.56,1557.50 C1070.18,1538.25 1069.64,1521.70 1069.36,1520.73 C1069.08,1519.76 1067.09,1518.06 1064.93,1516.96 L1061.00,1514.96 L1060.83,1488.73 C1060.59,1449.24 1060.67,1451.04 1059.00,1449.98 C1058.17,1449.46 1054.94,1449.02 1051.81,1449.02 C1042.76,1448.99 1043.00,1448.05 1043.00,1483.72 C1043.00,1512.67 1042.91,1514.09 1041.00,1516.00 C1039.90,1517.10 1038.59,1518.00 1038.10,1518.00 C1035.22,1518.00 1035.00,1526.24 1035.00,1635.10 C1035.00,1711.17 1035.33,1746.64 1036.06,1748.24 C1036.65,1749.52 1039.10,1751.82 1041.52,1753.35 C1043.94,1754.88 1048.11,1758.53 1050.78,1761.45 C1055.04,1766.11 1055.80,1767.62 1056.96,1773.81 C1060.29,1791.46 1054.49,1803.70 1039.27,1811.11 C1033.09,1814.12 1032.40,1814.24 1023.65,1813.73 C1015.81,1813.28 1013.68,1812.75 1008.76,1810.03 C999.66,1805.00 993.17,1795.92 992.02,1786.61 C990.71,1776.05 992.13,1769.98 997.54,1762.95 C1000.14,1759.57 1004.59,1755.32 1007.43,1753.50 C1010.26,1751.69 1013.12,1749.56 1013.77,1748.78 C1014.66,1747.71 1014.89,1719.88 1014.72,1634.11 L1014.50,1520.86 L1011.02,1518.02 C1007.70,1515.31 1007.51,1514.80 1006.85,1506.84 C1006.47,1502.25 1006.12,1488.36 1006.08,1475.97 C1005.98,1448.95 1006.00,1449.00 997.07,1449.00 C993.61,1449.00 990.84,1449.51 990.25,1450.25 C989.68,1450.97 988.96,1464.74 988.56,1482.86 C988.17,1500.10 987.63,1514.80 987.36,1515.52 C987.08,1516.23 985.65,1517.12 984.19,1517.49 C982.72,1517.86 981.18,1518.69 980.78,1519.33 C980.37,1519.97 980.02,1536.33 980.02,1555.68 C980.01,1576.06 979.59,1591.95 979.03,1593.43 C977.65,1597.05 954.41,1620.68 949.25,1623.70 C944.00,1626.78 941.92,1626.36 936.17,1621.07 C932.63,1617.81 931.97,1616.66 932.55,1614.79 C933.58,1611.51 939.35,1604.87 950.39,1594.26 L960.00,1585.02 L960.00,1552.21 C960.00,1518.17 959.86,1517.00 955.84,1517.00 C952.36,1517.00 952.00,1513.74 952.00,1482.62 C952.00,1452.23 951.99,1452.11 949.78,1450.56 C947.11,1448.68 939.47,1448.54 936.00,1450.29 L933.50,1451.56 L933.00,1482.79 L932.50,1514.03 L928.75,1517.46 L925.00,1520.90 L924.95,1546.20 C924.92,1563.66 924.54,1572.35 923.70,1574.24 C923.04,1575.74 916.61,1583.17 909.42,1590.74 C902.22,1598.31 895.84,1605.43 895.23,1606.57 C894.53,1607.87 893.96,1618.50 893.69,1635.07 C893.21,1664.61 893.63,1667.10 899.42,1669.55 C904.25,1671.59 910.58,1678.91 913.41,1685.72 C915.47,1690.66 916.00,1693.60 916.00,1699.99 C916.00,1707.11 915.65,1708.65 912.94,1713.45 C905.01,1727.51 887.92,1735.09 874.45,1730.54 C867.62,1728.23 860.56,1723.52 856.57,1718.62 C846.79,1706.61 848.74,1686.17 860.76,1674.47 C862.82,1672.46 865.95,1670.19 867.71,1669.42 C869.48,1668.64 871.39,1667.13 871.96,1666.07 C872.61,1664.85 873.00,1652.73 873.00,1633.53 C873.00,1604.87 873.13,1602.67 875.00,1598.99 C876.11,1596.83 883.27,1588.59 890.92,1580.69 C903.97,1567.21 904.88,1566.01 905.56,1561.46 C906.39,1555.89 905.52,1522.39 904.47,1519.74 C904.09,1518.77 902.69,1517.71 901.37,1517.38 C896.17,1516.07 896.00,1514.95 896.00,1482.71 C896.00,1464.05 895.61,1452.14 894.96,1450.93 C894.10,1449.33 892.83,1449.00 887.44,1449.00 C881.39,1449.00 880.88,1449.18 879.98,1451.57 C879.42,1453.02 879.00,1466.91 879.00,1483.72 L879.00,1513.31 L874.75,1517.23 L870.50,1521.15 L870.23,1541.22 C870.00,1558.52 869.70,1561.85 868.05,1565.39 C865.35,1571.20 812.15,1625.00 809.12,1625.00 C805.93,1625.00 796.75,1615.57 796.75,1612.29 C796.75,1610.29 802.17,1604.33 821.92,1584.62 C835.77,1570.80 848.19,1557.70 849.52,1555.50 C851.78,1551.76 851.94,1550.55 851.97,1536.83 C851.99,1528.76 851.72,1521.44 851.38,1520.54 C851.04,1519.65 849.33,1518.33 847.58,1517.60 C842.68,1515.55 842.15,1512.10 841.91,1481.00 C841.67,1448.07 841.94,1449.00 832.51,1449.00 C827.17,1449.00 825.89,1449.33 825.04,1450.93 C824.39,1452.14 824.00,1464.05 824.00,1482.71 C824.00,1508.10 823.77,1512.89 822.44,1514.78 C821.59,1516.00 820.29,1517.00 819.57,1517.00 C816.61,1517.00 815.79,1520.11 815.30,1533.21 C814.99,1541.55 814.30,1547.46 813.44,1549.12 C812.10,1551.72 775.79,1587.20 765.00,1596.46 C756.48,1603.78 756.00,1604.54 756.00,1610.78 C756.00,1616.89 752.39,1627.36 748.51,1632.54 C745.12,1637.04 739.10,1640.82 732.64,1642.51 C725.38,1644.40 723.05,1644.38 714.88,1642.40 C702.52,1639.40 693.60,1630.19 691.94,1618.73 C689.22,1599.95 698.24,1585.53 715.50,1581.05 C723.67,1578.93 735.72,1580.63 740.01,1584.51 C741.01,1585.41 742.98,1586.00 744.40,1585.82 C747.74,1585.40 791.68,1543.00 793.64,1538.32 C794.39,1536.53 795.00,1531.88 795.00,1527.98 C795.00,1521.10 794.90,1520.80 791.32,1517.52 L787.63,1514.15 L786.94,1483.54 C786.14,1448.33 786.31,1449.00 777.92,1449.00 C775.14,1449.00 772.55,1449.59 771.73,1450.41 C770.24,1451.91 769.00,1474.89 769.00,1501.23 C769.00,1508.32 768.53,1515.00 767.96,1516.07 C767.01,1517.84 765.74,1518.00 752.14,1518.00 C737.53,1518.00 737.32,1517.97 734.92,1515.42 L732.50,1512.84 L732.21,1482.22 C732.02,1462.18 731.54,1451.15 730.84,1450.30 C730.03,1449.33 725.47,1449.00 712.60,1449.00 C698.39,1449.00 695.02,1448.72 692.97,1447.36 C688.92,1444.68 639.99,1395.73 638.43,1392.80 C637.34,1390.73 637.00,1385.68 636.98,1371.30 C636.98,1360.96 636.59,1351.90 636.13,1351.17 C635.45,1350.11 629.16,1349.86 604.79,1349.96 C571.83,1350.08 572.94,1350.26 571.56,1344.51 C571.16,1342.87 570.31,1341.18 569.67,1340.78 C569.03,1340.37 562.55,1340.02 555.29,1340.02 C543.23,1340.00 541.98,1340.17 541.04,1341.93 C540.39,1343.13 540.01,1353.91 540.03,1370.18 L540.05,1396.50 L519.63,1416.50 L499.20,1436.50 L499.73,1448.53 C500.23,1459.97 500.13,1460.80 497.72,1465.53 C491.09,1478.50 476.87,1484.91 461.00,1482.07 C451.32,1480.34 444.53,1475.09 438.67,1464.82 C436.37,1460.80 436.00,1459.00 436.00,1451.92 C436.00,1441.37 438.92,1435.09 447.41,1427.39 C457.20,1418.50 468.49,1415.77 477.86,1420.02 C480.26,1421.11 482.76,1422.00 483.43,1422.00 C484.85,1422.00 515.36,1391.52 518.11,1387.35 C519.84,1384.72 519.99,1382.19 519.99,1354.68 C520.00,1336.06 520.39,1324.14 521.04,1322.93 C521.99,1321.15 523.28,1321.00 537.79,1320.99 C546.43,1320.99 557.24,1320.70 561.81,1320.34 L570.12,1319.69 L572.06,1315.88 C573.13,1313.78 574.88,1311.60 575.94,1311.03 C577.14,1310.39 588.65,1310.00 606.31,1310.00 C627.87,1310.00 635.00,1309.70 635.75,1308.75 C636.30,1308.06 637.04,1304.35 637.41,1300.49 C638.50,1289.01 640.50,1289.71 605.39,1289.32 L575.50,1289.00 L572.65,1285.50 L569.81,1282.00 L558.44,1282.00 C549.31,1282.00 546.04,1282.41 541.83,1284.07 C537.41,1285.81 535.41,1286.02 529.05,1285.44 C524.90,1285.05 521.17,1284.23 520.77,1283.62 C520.36,1283.00 520.02,1278.82 520.02,1274.32 C520.00,1268.35 520.41,1265.74 521.51,1264.63 C522.76,1263.38 526.95,1263.11 546.26,1263.05 C571.47,1262.96 572.00,1262.85 572.00,1257.31 C572.00,1256.04 572.90,1254.10 574.00,1253.00 C575.91,1251.09 577.33,1251.00 604.93,1251.00 C629.89,1251.00 634.07,1250.78 635.43,1249.43 C636.59,1248.27 637.00,1245.84 636.98,1240.18 C636.98,1235.96 636.60,1231.92 636.15,1231.21 C635.52,1230.22 629.11,1229.91 607.92,1229.84 C592.84,1229.80 578.90,1229.37 576.94,1228.89 C574.27,1228.24 573.01,1227.20 571.94,1224.76 L570.50,1221.50 L543.31,1221.70 C516.38,1221.89 516.09,1221.92 512.31,1224.33 C507.09,1227.66 488.58,1245.32 486.16,1249.28 C484.27,1252.36 484.17,1254.73 483.92,1304.50 C483.63,1360.73 483.69,1360.04 478.12,1365.38 C476.59,1366.85 471.77,1370.27 467.42,1372.97 C463.06,1375.68 457.51,1379.38 455.09,1381.20 C452.66,1383.01 449.51,1385.05 448.09,1385.73 C445.65,1386.88 441.16,1389.56 427.33,1398.10 C422.06,1401.34 410.22,1408.42 401.73,1413.40 C399.96,1414.44 394.23,1417.73 389.00,1420.71 C383.77,1423.70 378.82,1426.55 378.00,1427.06 C377.18,1427.57 374.25,1429.17 371.50,1430.63 C368.75,1432.09 363.83,1435.05 360.56,1437.22 C357.29,1439.39 352.57,1442.27 350.06,1443.63 C347.55,1444.99 343.02,1447.64 340.00,1449.53 C336.98,1451.41 333.28,1453.45 331.79,1454.06 C329.07,1455.17 327.37,1458.17 328.46,1459.93 C328.78,1460.45 331.40,1462.28 334.27,1464.00 C337.15,1465.71 344.23,1470.00 350.00,1473.54 C355.77,1477.07 361.62,1480.42 363.00,1480.98 C364.38,1481.54 366.18,1482.44 367.00,1482.98 C367.82,1483.51 374.57,1487.37 382.00,1491.55 C389.43,1495.73 401.80,1502.91 409.50,1507.52 C417.20,1512.12 432.50,1521.12 443.50,1527.53 C454.50,1533.93 469.80,1542.94 477.50,1547.55 C485.20,1552.16 493.30,1556.91 495.50,1558.10 C498.61,1559.79 521.87,1573.48 531.00,1578.99 C534.72,1581.24 552.85,1591.60 556.00,1593.27 C557.92,1594.30 561.15,1596.12 563.16,1597.32 C565.17,1598.52 571.69,1602.35 577.66,1605.84 C583.62,1609.32 591.29,1613.92 594.70,1616.06 C598.12,1618.20 604.19,1621.62 608.20,1623.65 C615.42,1627.30 632.10,1637.18 635.00,1639.51 C635.83,1640.18 639.20,1642.20 642.50,1644.02 C649.27,1647.74 650.78,1648.60 668.66,1658.88 C679.61,1665.17 702.49,1678.61 725.50,1692.27 C740.12,1700.95 752.73,1708.38 755.50,1709.95 C757.15,1710.89 763.45,1714.47 769.50,1717.91 C780.12,1723.95 787.44,1728.29 795.19,1733.17 C798.47,1735.24 809.65,1741.74 817.21,1745.98 C825.77,1750.78 848.32,1764.01 867.50,1775.47 C879.60,1782.71 893.55,1790.99 898.50,1793.87 C903.45,1796.75 910.65,1801.10 914.50,1803.53 C918.35,1805.96 924.65,1809.56 928.50,1811.54 C932.35,1813.51 939.02,1817.35 943.33,1820.07 C947.63,1822.78 951.42,1825.00 951.73,1825.00 C952.05,1825.00 953.70,1826.06 955.41,1827.36 C957.11,1828.65 960.30,1830.70 962.50,1831.91 C964.70,1833.11 968.98,1835.64 972.00,1837.52 C975.02,1839.40 978.17,1841.27 979.00,1841.67 C981.97,1843.12 1012.97,1861.03 1017.63,1863.98 C1023.64,1867.79 1025.90,1867.77 1032.88,1863.81 Z M1034.05,1792.46 C1040.87,1786.28 1037.25,1771.26 1028.29,1768.56 C1024.76,1767.49 1018.18,1770.03 1014.95,1773.71 C1012.57,1776.43 1012.00,1777.98 1012.00,1781.84 C1012.00,1785.91 1012.48,1787.07 1015.25,1789.75 C1017.04,1791.48 1019.62,1793.36 1021.00,1793.94 C1024.50,1795.40 1031.70,1794.58 1034.05,1792.46 Z M887.93,1711.54 C889.49,1710.73 891.94,1708.67 893.38,1706.96 C895.50,1704.44 896.00,1702.82 896.00,1698.41 C896.00,1693.63 895.59,1692.53 892.63,1689.29 C889.62,1686.01 888.73,1685.62 884.32,1685.62 C878.20,1685.62 873.18,1689.06 870.45,1695.11 C868.60,1699.22 868.60,1699.22 871.05,1703.86 C872.83,1707.24 874.72,1709.11 877.96,1710.75 C883.22,1713.40 884.18,1713.48 887.93,1711.54 Z M1174.01,1710.00 C1178.98,1707.46 1180.00,1705.50 1180.00,1698.45 C1180.00,1693.18 1179.72,1692.48 1176.12,1688.88 C1171.80,1684.56 1168.44,1683.95 1162.53,1686.42 C1158.56,1688.08 1153.00,1695.24 1153.00,1698.69 C1153.00,1702.35 1156.69,1708.77 1159.76,1710.43 C1163.61,1712.52 1169.40,1712.35 1174.01,1710.00 Z M727.40,1624.04 C730.96,1622.68 736.00,1615.39 736.00,1611.60 C735.99,1607.14 732.71,1602.40 727.96,1599.98 C722.81,1597.35 719.20,1598.00 714.57,1602.37 C708.04,1608.53 709.13,1618.36 716.84,1622.83 C720.88,1625.18 723.59,1625.49 727.40,1624.04 Z M1332.02,1623.49 C1335.67,1621.60 1340.00,1615.36 1340.00,1612.00 C1340.00,1606.27 1332.34,1598.96 1326.15,1598.79 C1319.98,1598.61 1313.00,1605.02 1313.00,1610.85 C1313.00,1617.28 1320.22,1624.95 1326.30,1624.98 C1327.84,1624.99 1330.41,1624.32 1332.02,1623.49 Z M476.90,1461.47 C479.70,1458.28 480.00,1457.28 480.00,1451.35 C480.00,1445.00 479.86,1444.62 475.98,1440.75 C472.13,1436.89 471.78,1436.76 467.24,1437.38 C463.66,1437.87 461.65,1438.88 459.00,1441.53 C455.77,1444.77 455.50,1445.49 455.50,1451.13 C455.50,1457.07 455.61,1457.33 459.88,1461.11 C463.66,1464.47 464.90,1465.00 469.03,1465.00 C473.23,1465.00 474.16,1464.58 476.90,1461.47 Z M1587.73,1462.49 C1591.97,1460.78 1596.00,1455.63 1596.00,1451.91 C1596.00,1449.15 1594.16,1446.06 1589.65,1441.25 C1587.07,1438.49 1585.91,1438.00 1582.05,1438.02 C1572.66,1438.07 1567.38,1447.80 1571.46,1457.56 C1573.86,1463.31 1580.60,1465.35 1587.73,1462.49 Z M317.79,1439.17 C327.25,1432.79 331.77,1430.00 332.67,1430.00 C333.23,1430.00 334.50,1429.10 335.50,1428.00 C336.50,1426.90 337.85,1426.00 338.50,1426.00 C339.15,1426.00 342.47,1424.20 345.88,1422.00 C349.28,1419.80 352.45,1418.00 352.91,1418.00 C353.38,1418.00 354.35,1417.29 355.07,1416.42 C355.79,1415.55 358.88,1413.51 361.94,1411.89 C365.00,1410.26 369.52,1407.62 372.00,1406.00 C378.90,1401.50 385.75,1398.00 387.66,1398.00 C388.61,1398.00 393.69,1395.15 398.95,1391.67 C411.60,1383.29 419.88,1378.00 420.34,1378.00 C420.55,1378.00 425.62,1375.02 431.61,1371.38 C437.60,1367.74 443.78,1364.03 445.34,1363.13 C451.69,1359.48 461.58,1352.71 462.75,1351.21 C463.71,1349.98 464.00,1337.45 464.00,1296.36 L464.00,1243.10 L468.84,1237.30 C475.15,1229.75 496.40,1209.34 501.91,1205.55 L506.20,1202.59 L537.35,1202.24 C554.48,1202.04 569.04,1201.71 569.70,1201.49 C570.36,1201.28 571.37,1199.33 571.96,1197.15 C572.54,1194.98 573.66,1192.96 574.44,1192.66 C575.22,1192.36 589.01,1192.02 605.08,1191.91 C639.39,1191.66 638.01,1192.09 637.99,1181.75 C637.98,1178.31 637.40,1174.38 636.71,1173.00 L635.44,1170.50 L605.15,1170.00 L574.85,1169.50 L572.18,1166.33 L569.50,1163.17 L554.00,1163.42 C545.48,1163.55 526.65,1163.74 512.18,1163.83 L485.85,1164.00 L452.68,1197.63 C434.43,1216.13 418.83,1232.21 418.01,1233.38 C416.88,1234.99 416.52,1238.61 416.51,1248.52 C416.50,1261.48 416.48,1261.57 413.27,1266.58 C409.15,1273.00 406.89,1275.04 399.50,1278.98 C393.75,1282.05 393.12,1282.17 384.50,1281.74 C369.70,1281.01 361.46,1275.32 354.92,1261.32 C352.16,1255.43 351.84,1253.87 352.36,1249.04 C353.75,1236.16 359.90,1226.46 370.14,1221.00 C375.92,1217.93 377.15,1217.65 384.67,1217.75 C389.19,1217.82 393.78,1218.35 394.88,1218.93 C395.97,1219.52 397.69,1220.00 398.69,1220.00 C399.75,1220.00 412.43,1207.98 429.02,1191.25 C461.44,1158.55 475.62,1145.52 479.69,1144.71 C481.24,1144.41 501.74,1144.10 525.26,1144.04 C548.78,1143.98 568.69,1143.67 569.50,1143.36 C570.31,1143.05 571.44,1141.09 572.00,1139.01 C573.77,1132.42 573.22,1132.54 605.87,1132.15 C631.88,1131.84 635.58,1131.60 636.68,1130.15 C638.27,1128.06 638.38,1115.93 636.84,1112.55 L635.68,1110.00 L606.09,1109.98 C589.82,1109.98 575.85,1109.56 575.06,1109.06 C574.27,1108.56 572.91,1106.65 572.05,1104.82 L570.48,1101.50 L543.27,1101.23 C518.27,1100.99 515.98,1100.82 515.09,1099.17 C514.28,1097.65 514.25,1095.30 514.92,1085.32 C514.96,1084.67 515.72,1083.43 516.59,1082.55 C517.98,1081.16 521.49,1080.98 543.52,1081.16 C569.44,1081.37 572.00,1081.04 572.00,1077.45 C572.00,1076.73 572.71,1075.44 573.57,1074.57 C574.93,1073.21 579.17,1073.00 604.74,1073.00 C639.48,1073.00 638.00,1073.43 638.00,1063.39 C638.00,1056.92 636.52,1051.98 634.59,1052.02 C624.22,1052.25 576.01,1051.01 574.70,1050.48 C573.71,1050.08 572.64,1048.46 572.33,1046.90 C572.02,1045.33 571.23,1043.61 570.59,1043.08 C569.20,1041.92 420.65,1041.24 417.26,1042.38 C416.03,1042.79 413.39,1045.59 411.40,1048.59 C404.46,1059.04 395.67,1063.97 383.93,1063.99 C372.25,1064.01 361.16,1057.27 355.03,1046.41 C352.07,1041.16 351.87,1040.16 351.87,1030.94 C351.87,1022.06 352.14,1020.63 354.54,1016.53 C360.36,1006.60 373.21,998.92 384.30,998.75 C394.47,998.60 406.05,1005.49 412.46,1015.50 C414.39,1018.52 416.54,1020.99 417.24,1020.97 C417.93,1020.95 452.15,1021.23 493.27,1021.57 C553.08,1022.08 568.36,1021.95 569.58,1020.93 C570.43,1020.23 571.74,1018.16 572.51,1016.33 L573.90,1013.00 L604.41,1013.00 C639.77,1013.00 637.00,1013.96 637.00,1001.69 C637.00,996.54 636.57,993.89 635.60,993.09 C634.65,992.30 625.33,991.77 606.35,991.43 C591.03,991.15 577.49,990.71 576.25,990.44 C574.88,990.15 573.31,988.50 572.24,986.23 L570.49,982.50 L543.79,982.00 C527.89,981.70 516.69,981.09 516.09,980.49 C514.58,978.97 514.48,965.33 515.97,963.54 C517.01,962.28 521.58,961.99 543.75,961.77 C572.50,961.48 570.44,961.90 572.87,955.75 L573.96,953.00 L604.42,953.00 C639.99,953.00 638.00,953.65 638.00,941.97 C638.00,931.43 640.06,932.09 605.55,931.63 C576.02,931.24 575.58,931.20 573.80,929.01 C572.81,927.78 572.00,926.02 572.00,925.09 C572.00,921.07 571.24,921.00 525.05,921.00 C482.19,920.99 480.37,920.92 477.20,918.98 C475.39,917.88 457.15,900.10 436.68,879.49 C416.20,858.87 399.18,842.00 398.85,842.00 C398.52,842.00 396.34,842.68 394.00,843.50 C379.04,848.78 361.15,840.05 354.59,824.28 C351.20,816.13 351.20,809.83 354.62,801.72 C359.36,790.44 366.16,784.11 376.46,781.37 C390.16,777.72 401.96,781.88 411.67,793.77 C416.55,799.75 417.64,805.14 416.69,818.67 L416.10,826.99 L420.20,831.75 C430.40,843.58 464.16,878.81 475.17,889.12 L487.33,900.50 L528.91,900.50 L570.48,900.50 L572.25,896.75 L574.02,893.00 L604.39,893.00 C638.90,893.00 637.26,893.41 637.64,884.65 C637.81,880.57 636.74,874.11 635.67,872.79 C635.58,872.67 621.55,872.33 604.50,872.04 L573.51,871.50 L572.20,867.50 C571.48,865.30 570.57,863.18 570.18,862.79 C569.79,862.40 556.43,862.03 540.49,861.98 C513.09,861.88 511.25,861.76 507.00,859.75 C504.01,858.33 496.02,851.20 483.24,838.56 L463.98,819.50 L463.99,766.28 L464.00,713.07 L460.83,709.45 C458.16,706.41 452.72,702.29 445.08,697.51 C444.21,696.97 438.55,693.32 432.50,689.42 C426.45,685.51 420.31,681.68 418.85,680.91 C417.39,680.13 411.54,676.39 405.85,672.60 C392.14,663.45 389.90,662.03 380.50,656.55 C376.10,653.99 369.80,650.11 366.50,647.93 C363.20,645.75 359.25,643.19 357.71,642.24 C348.43,636.45 326.30,621.70 324.56,620.14 C323.43,619.12 320.58,617.24 318.24,615.96 C314.92,614.14 313.71,613.89 312.78,614.82 C311.85,615.75 311.63,708.23 311.80,1027.26 C311.92,1253.44 312.02,1439.06 312.01,1439.75 C311.99,1441.55 314.66,1441.29 317.79,1439.17 Z M1738.75,1028.25 L1739.00,616.00 L1736.72,616.00 C1735.47,616.00 1731.42,617.91 1727.73,620.25 C1724.04,622.59 1718.06,626.30 1714.43,628.50 C1710.81,630.70 1706.42,633.52 1704.67,634.78 C1702.93,636.03 1698.80,638.77 1695.50,640.86 C1692.20,642.95 1685.45,647.31 1680.50,650.55 C1675.55,653.79 1668.12,658.18 1664.00,660.32 C1659.88,662.45 1654.94,665.39 1653.04,666.85 C1649.75,669.37 1642.89,673.93 1636.65,677.75 C1631.07,681.17 1624.35,685.47 1613.50,692.56 C1607.45,696.51 1601.37,700.36 1599.99,701.12 C1595.58,703.55 1589.13,708.45 1588.30,710.00 C1587.86,710.83 1587.28,734.67 1587.00,763.00 C1586.55,809.79 1586.33,814.88 1584.69,818.62 C1583.42,821.52 1577.02,828.34 1563.03,841.73 L1543.16,860.72 L1537.03,861.42 C1533.66,861.80 1519.58,862.03 1505.74,861.93 C1491.91,861.83 1480.44,862.14 1480.27,862.62 C1480.10,863.11 1478.95,865.30 1477.70,867.50 L1475.44,871.50 L1445.64,872.00 C1417.61,872.47 1415.75,872.62 1414.42,874.44 C1412.64,876.88 1412.47,890.07 1414.20,891.80 C1415.08,892.68 1423.26,893.00 1444.77,893.00 L1474.15,893.00 L1477.74,897.00 L1481.33,901.00 L1522.07,901.00 L1562.81,901.00 L1585.21,878.25 C1597.53,865.74 1611.61,851.23 1616.50,846.00 C1621.39,840.77 1627.09,834.81 1629.17,832.73 L1632.96,828.97 L1632.33,816.66 C1631.72,804.49 1631.74,804.30 1634.51,799.43 C1640.69,788.59 1648.54,782.74 1659.21,781.04 C1673.31,778.80 1685.74,784.93 1693.14,797.79 C1696.27,803.23 1696.42,803.97 1696.36,813.50 C1696.31,822.24 1695.97,824.15 1693.68,828.66 C1691.31,833.32 1683.66,841.00 1681.38,841.00 C1680.88,841.00 1678.68,841.99 1676.49,843.19 C1672.08,845.62 1662.84,846.20 1653.19,844.65 L1647.87,843.80 L1629.69,862.55 C1619.68,872.86 1602.95,889.94 1592.50,900.48 L1573.50,919.67 L1560.50,920.33 C1553.35,920.69 1532.29,920.99 1513.69,921.00 L1479.89,921.00 L1477.87,925.56 C1476.76,928.07 1475.32,930.29 1474.68,930.50 C1474.03,930.72 1460.25,931.10 1444.05,931.36 C1410.15,931.91 1412.00,931.32 1412.00,941.58 C1412.00,946.19 1412.49,948.38 1413.91,950.14 L1415.82,952.49 L1445.44,952.86 L1475.06,953.22 L1476.51,956.02 C1479.70,962.18 1478.75,962.00 1507.54,962.00 C1538.08,962.00 1536.00,961.21 1536.00,972.81 C1536.00,977.52 1535.55,980.13 1534.61,980.91 C1533.64,981.72 1525.76,982.04 1508.36,982.00 C1494.69,981.96 1482.82,981.95 1481.99,981.97 C1481.15,981.99 1479.35,983.82 1477.99,986.04 C1476.62,988.26 1474.60,990.26 1473.50,990.48 C1472.40,990.70 1458.96,991.09 1443.64,991.33 C1411.39,991.85 1412.82,991.40 1412.20,1001.25 C1411.87,1006.38 1412.15,1007.97 1413.75,1009.94 L1415.70,1012.35 L1445.37,1012.81 L1475.05,1013.27 L1477.82,1017.38 L1480.59,1021.50 L1555.54,1021.23 C1596.77,1021.08 1631.40,1020.75 1632.50,1020.51 C1633.60,1020.26 1636.08,1017.57 1638.00,1014.54 C1642.20,1007.91 1647.90,1003.00 1654.00,1000.74 C1662.14,997.72 1666.15,997.59 1674.65,1000.08 C1681.70,1002.14 1683.12,1003.01 1688.58,1008.52 C1694.59,1014.60 1696.55,1018.31 1699.22,1028.66 C1701.30,1036.70 1693.34,1052.44 1684.11,1058.54 C1668.72,1068.73 1648.33,1064.09 1637.93,1048.04 C1636.17,1045.33 1634.11,1042.87 1633.35,1042.58 C1632.59,1042.29 1598.18,1042.01 1556.89,1041.97 C1480.98,1041.90 1479.04,1041.99 1478.98,1045.37 C1478.97,1045.99 1478.18,1047.50 1477.23,1048.72 C1475.53,1050.90 1475.02,1050.94 1446.00,1051.40 C1429.78,1051.65 1415.76,1052.15 1414.85,1052.50 C1412.76,1053.31 1412.03,1056.03 1412.01,1063.06 C1411.99,1072.74 1410.30,1072.24 1444.93,1072.79 L1475.16,1073.28 L1477.71,1077.14 C1479.12,1079.26 1480.77,1081.02 1481.38,1081.06 C1482.00,1081.09 1493.85,1081.11 1507.73,1081.10 C1528.98,1081.10 1533.20,1081.34 1534.48,1082.62 C1536.64,1084.78 1536.60,1097.26 1534.43,1099.43 C1533.08,1100.77 1529.24,1101.00 1507.68,1100.99 L1482.50,1100.98 L1478.50,1105.47 L1474.50,1109.96 L1444.67,1110.23 C1410.02,1110.54 1412.00,1109.89 1412.00,1120.97 C1412.00,1132.61 1410.23,1132.00 1444.06,1132.00 C1471.67,1132.00 1473.09,1132.09 1475.00,1134.00 C1476.10,1135.10 1477.00,1136.57 1477.00,1137.26 C1477.00,1137.95 1478.14,1139.75 1479.54,1141.26 L1482.08,1144.00 L1527.12,1144.00 L1572.16,1144.00 L1581.33,1152.63 C1586.37,1157.37 1603.64,1174.53 1619.71,1190.75 C1645.39,1216.69 1649.20,1220.17 1651.21,1219.54 C1668.66,1214.08 1684.66,1219.88 1693.03,1234.71 C1695.96,1239.89 1696.22,1241.11 1696.32,1249.92 C1696.43,1258.75 1696.21,1259.89 1693.56,1264.50 C1689.40,1271.71 1685.26,1275.79 1679.00,1278.80 C1674.32,1281.06 1672.16,1281.46 1664.50,1281.48 C1656.75,1281.50 1654.73,1281.13 1650.00,1278.82 C1643.73,1275.77 1638.50,1270.67 1634.49,1263.67 C1631.74,1258.89 1631.72,1258.72 1632.40,1246.56 L1633.08,1234.29 L1629.79,1230.39 C1626.05,1225.97 1564.77,1165.11 1562.79,1163.85 C1562.08,1163.40 1543.55,1163.02 1521.62,1163.02 L1481.74,1163.00 L1477.79,1166.57 C1475.11,1168.99 1472.99,1170.08 1471.17,1169.96 C1469.70,1169.87 1456.72,1169.84 1442.32,1169.89 C1421.09,1169.98 1415.87,1170.27 1414.72,1171.43 C1412.78,1173.36 1411.48,1187.67 1413.07,1189.59 C1414.03,1190.75 1419.60,1191.00 1444.05,1191.00 C1476.97,1191.00 1475.61,1190.74 1478.46,1197.56 C1479.34,1199.65 1480.75,1201.12 1482.18,1201.42 C1483.46,1201.70 1497.59,1202.06 1513.59,1202.24 C1538.59,1202.51 1543.03,1202.79 1545.20,1204.21 C1554.40,1210.24 1581.46,1237.01 1584.58,1243.17 L1587.00,1247.93 L1587.00,1298.89 L1587.00,1349.85 L1589.52,1352.84 C1590.90,1354.48 1594.59,1357.33 1597.70,1359.16 C1600.82,1361.00 1605.28,1363.62 1607.62,1365.00 C1614.32,1368.95 1643.91,1386.32 1662.50,1397.21 C1679.38,1407.10 1704.92,1422.25 1714.50,1428.06 C1717.25,1429.73 1722.88,1433.29 1727.00,1435.98 C1731.12,1438.67 1735.40,1440.78 1736.50,1440.68 C1738.50,1440.50 1738.50,1439.68 1738.75,1028.25 Z M1343.01,1413.59 C1350.87,1408.26 1372.24,1387.40 1376.85,1380.57 C1380.00,1375.89 1380.22,1374.98 1381.05,1363.07 C1381.53,1356.16 1382.05,1217.75 1382.21,1055.50 C1382.53,734.70 1382.85,753.88 1376.94,743.44 C1373.25,736.93 1349.83,713.69 1342.29,709.06 L1336.50,705.50 L1026.03,705.24 L715.57,704.98 L710.06,707.74 C703.88,710.83 684.52,729.43 674.47,741.92 L668.50,749.34 L668.25,1060.30 L667.99,1371.26 L670.25,1375.87 C672.93,1381.37 701.00,1409.99 708.42,1414.81 L713.34,1418.00 L1024.93,1418.00 L1336.52,1418.00 L1343.01,1413.59 Z M722.52,1394.27 C716.18,1392.34 704.55,1382.83 697.51,1373.84 L692.30,1367.18 L691.69,1353.84 C691.35,1346.50 691.25,1209.70 691.46,1049.83 C691.76,825.88 692.12,758.63 693.05,756.83 C697.27,748.66 713.74,732.38 720.89,729.31 C723.83,728.05 764.22,727.86 1025.59,727.84 L1326.91,727.83 L1332.21,730.66 C1339.14,734.38 1352.80,748.06 1356.44,754.93 L1359.32,760.36 L1359.12,1058.93 C1358.90,1388.15 1359.38,1364.01 1352.88,1373.61 C1348.66,1379.84 1336.50,1390.62 1330.47,1393.47 L1325.12,1396.00 L1026.31,1395.90 C762.00,1395.80 726.92,1395.62 722.52,1394.27 Z M887.53,1368.55 C889.44,1367.75 891.06,1366.97 891.14,1366.80 C891.32,1366.41 892.84,1340.82 893.59,1325.52 C893.97,1317.81 893.78,1312.19 893.05,1309.77 L891.92,1306.00 L885.00,1306.00 C879.17,1306.00 877.91,1306.31 877.04,1307.93 C875.45,1310.90 875.71,1334.53 877.37,1337.80 C878.19,1339.42 879.01,1345.89 879.42,1354.00 C879.97,1364.77 880.44,1367.75 881.75,1368.75 C883.75,1370.28 883.35,1370.30 887.53,1368.55 Z M958.80,1368.80 C959.61,1367.99 960.00,1363.47 960.00,1355.04 C960.00,1344.38 960.30,1341.90 962.00,1338.74 C963.71,1335.54 964.00,1333.12 963.98,1321.75 C963.98,1314.46 963.64,1308.01 963.23,1307.40 C962.83,1306.80 959.46,1306.03 955.75,1305.69 C944.84,1304.70 945.29,1302.09 947.74,1351.97 C948.48,1367.14 948.55,1367.47 951.00,1368.71 C954.17,1370.31 957.26,1370.34 958.80,1368.80 Z M991.51,1369.00 C992.25,1369.00 993.56,1368.29 994.43,1367.43 C995.69,1366.16 996.01,1363.29 996.04,1352.68 C996.06,1343.14 996.47,1338.81 997.50,1337.00 C999.30,1333.85 999.42,1315.05 997.68,1310.00 L996.47,1306.50 L989.48,1306.84 C985.64,1307.03 982.05,1307.61 981.50,1308.14 C979.87,1309.69 979.59,1333.40 981.17,1336.17 C982.03,1337.67 982.68,1343.60 983.00,1352.83 C983.45,1365.61 983.71,1367.32 985.47,1368.60 C986.56,1369.40 988.05,1369.81 988.80,1369.52 C989.55,1369.23 990.77,1369.00 991.51,1369.00 Z M1098.78,1368.44 C1100.88,1366.97 1101.00,1366.17 1101.04,1353.69 C1101.06,1344.14 1101.47,1339.81 1102.50,1338.00 C1104.38,1334.71 1104.54,1312.63 1102.71,1309.00 C1101.58,1306.76 1100.75,1306.47 1094.78,1306.21 C1088.55,1305.93 1087.99,1306.08 1086.41,1308.50 C1084.97,1310.70 1084.79,1312.82 1085.27,1322.45 C1085.57,1328.70 1086.32,1334.72 1086.91,1335.84 C1087.53,1336.99 1088.01,1343.40 1088.01,1350.68 C1088.02,1357.73 1088.30,1364.51 1088.63,1365.75 C1089.14,1367.65 1091.90,1369.20 1096.03,1369.91 C1096.32,1369.96 1097.56,1369.30 1098.78,1368.44 Z M854.80,1367.80 C855.61,1366.99 856.00,1362.47 856.00,1354.05 C856.01,1343.27 856.29,1341.04 858.00,1338.23 C859.73,1335.40 860.00,1333.20 859.98,1322.23 C859.98,1315.23 859.55,1308.83 859.03,1308.01 C857.62,1305.78 844.59,1305.67 842.66,1307.87 C841.69,1308.98 841.03,1313.33 840.58,1321.50 C839.98,1332.52 840.09,1333.74 841.96,1336.50 C843.73,1339.13 843.99,1341.10 843.99,1352.32 C844.00,1359.36 844.47,1366.00 845.04,1367.07 C846.23,1369.30 852.81,1369.79 854.80,1367.80 Z M924.44,1366.78 C925.63,1365.08 926.00,1361.82 926.01,1353.03 C926.02,1345.05 926.52,1340.12 927.63,1337.00 C928.92,1333.36 929.10,1330.12 928.58,1320.02 C928.23,1313.16 927.49,1307.09 926.94,1306.54 C925.69,1305.29 913.87,1305.77 912.50,1307.11 C910.53,1309.05 911.92,1365.00 914.01,1367.51 C915.99,1369.90 922.58,1369.43 924.44,1366.78 Z M1030.43,1367.43 C1031.69,1366.16 1032.00,1363.36 1032.00,1353.05 C1032.00,1344.06 1032.46,1338.95 1033.55,1335.88 C1034.85,1332.17 1034.93,1329.82 1034.01,1320.50 C1032.50,1305.13 1033.11,1306.10 1025.20,1306.33 C1021.52,1306.44 1017.94,1306.89 1017.25,1307.32 C1015.62,1308.36 1015.52,1333.65 1017.12,1337.68 C1017.74,1339.23 1018.30,1346.17 1018.37,1353.10 C1018.46,1362.14 1018.89,1366.16 1019.87,1367.35 C1021.64,1369.48 1028.33,1369.53 1030.43,1367.43 Z M1063.59,1368.23 C1066.19,1366.47 1066.77,1363.32 1066.25,1353.85 C1065.84,1346.28 1066.11,1342.66 1067.48,1337.79 C1068.93,1332.62 1069.12,1329.50 1068.54,1320.13 C1068.16,1313.87 1067.61,1308.16 1067.34,1307.44 C1066.98,1306.51 1064.80,1306.19 1059.71,1306.33 L1052.59,1306.52 L1051.75,1310.51 C1051.28,1312.70 1051.15,1319.67 1051.44,1326.00 C1051.74,1332.33 1052.24,1343.91 1052.56,1351.74 C1053.10,1364.83 1053.32,1366.11 1055.30,1367.49 C1057.57,1369.09 1061.77,1369.46 1063.59,1368.23 Z M1134.80,1367.80 C1135.61,1366.99 1136.00,1362.36 1136.01,1353.55 C1136.01,1343.93 1136.40,1339.75 1137.51,1337.64 C1139.44,1333.93 1139.58,1312.71 1137.71,1309.00 C1136.54,1306.70 1135.86,1306.49 1129.20,1306.36 C1123.12,1306.25 1121.79,1306.52 1120.97,1308.05 C1120.44,1309.05 1120.00,1315.30 1120.00,1321.94 C1120.00,1332.10 1120.32,1334.60 1122.00,1337.74 C1123.70,1340.90 1124.00,1343.38 1124.00,1354.04 C1124.00,1368.03 1124.39,1369.00 1130.00,1369.00 C1131.98,1369.00 1134.14,1368.46 1134.80,1367.80 Z M1170.00,1368.02 C1171.17,1367.29 1171.69,1363.56 1172.36,1351.29 C1173.50,1330.28 1173.37,1310.55 1172.07,1308.14 C1171.24,1306.59 1169.74,1306.11 1164.86,1305.84 C1161.47,1305.65 1158.10,1305.95 1157.39,1306.50 C1155.61,1307.87 1155.11,1335.55 1156.81,1338.68 C1157.52,1339.98 1158.00,1345.18 1158.00,1351.47 C1158.00,1358.46 1158.49,1363.24 1159.45,1365.53 C1160.74,1368.63 1161.30,1369.00 1164.70,1368.98 C1166.79,1368.98 1169.17,1368.54 1170.00,1368.02 Z M1202.60,1368.23 C1205.19,1366.51 1206.00,1362.63 1206.00,1352.00 C1206.00,1345.29 1206.47,1340.00 1207.19,1338.68 C1208.61,1336.08 1208.40,1309.02 1206.94,1307.55 C1205.73,1306.33 1193.73,1305.93 1191.90,1307.06 C1190.88,1307.69 1190.33,1311.28 1189.87,1320.21 C1189.29,1331.49 1189.41,1332.83 1191.35,1336.50 C1193.12,1339.84 1193.51,1342.49 1193.70,1352.50 C1193.82,1359.10 1193.94,1365.08 1193.96,1365.78 C1194.03,1368.01 1200.28,1369.78 1202.60,1368.23 Z M757.44,1358.94 C761.48,1357.42 764.16,1355.49 767.48,1351.70 L772.00,1346.53 L772.00,1337.92 C772.00,1330.02 771.76,1328.97 769.15,1325.40 C765.18,1319.98 763.07,1318.29 758.07,1316.53 C743.91,1311.53 729.77,1319.16 727.85,1332.82 C726.50,1342.44 728.38,1348.16 734.99,1354.50 C738.13,1357.52 745.61,1360.78 749.71,1360.92 C750.93,1360.97 754.41,1360.07 757.44,1358.94 Z M1308.50,1358.29 C1313.59,1356.89 1323.00,1344.52 1323.00,1339.23 C1323.00,1338.40 1322.11,1334.73 1321.02,1331.08 C1318.72,1323.33 1314.77,1318.89 1308.12,1316.54 C1299.22,1313.40 1288.99,1315.88 1283.76,1322.43 C1280.81,1326.13 1277.00,1335.25 1277.00,1338.63 C1277.00,1342.05 1281.55,1351.28 1284.65,1354.12 C1289.38,1358.46 1298.57,1361.19 1303.50,1359.73 C1305.15,1359.24 1307.40,1358.59 1308.50,1358.29 Z M1192.06,1275.01 L1219.62,1274.50 L1227.29,1267.50 C1231.51,1263.65 1235.76,1258.92 1236.73,1257.00 C1238.40,1253.69 1238.50,1243.14 1238.50,1062.50 C1238.50,957.45 1238.14,870.20 1237.69,868.61 C1236.87,865.65 1226.78,854.42 1221.65,850.76 C1218.82,848.73 1217.94,848.72 1033.65,848.37 C931.82,848.17 844.37,848.40 839.32,848.86 C831.13,849.62 829.62,850.09 825.33,853.17 C822.69,855.07 818.60,858.97 816.26,861.85 L812.00,867.07 L812.00,1060.29 L812.01,1253.50 L814.75,1257.59 C818.09,1262.55 826.58,1271.18 830.00,1273.10 C832.04,1274.24 843.94,1274.59 894.50,1275.01 C975.39,1275.67 1156.90,1275.67 1192.06,1275.01 Z M391.74,1260.75 C394.46,1259.44 398.00,1252.47 398.00,1248.43 C397.99,1244.87 394.90,1239.55 391.91,1237.95 C390.65,1237.28 387.59,1236.98 384.76,1237.25 C380.74,1237.64 379.13,1238.40 376.18,1241.36 C371.30,1246.24 371.18,1250.91 375.78,1256.72 C380.24,1262.36 385.57,1263.70 391.74,1260.75 Z M1672.66,1259.85 C1678.34,1254.51 1678.18,1245.12 1672.31,1239.97 C1668.96,1237.03 1668.25,1236.81 1663.17,1237.24 C1658.55,1237.62 1657.21,1238.20 1654.83,1240.86 C1649.12,1247.26 1651.97,1257.81 1660.45,1261.64 C1664.41,1263.43 1669.67,1262.66 1672.66,1259.85 Z M778.07,1244.96 C779.74,1244.07 780.00,1242.81 780.00,1235.66 C780.00,1230.57 779.54,1226.94 778.80,1226.20 C777.99,1225.39 773.47,1225.00 765.04,1225.00 C754.38,1225.00 751.90,1225.30 748.74,1227.00 C745.61,1228.68 743.10,1229.00 733.20,1229.00 C720.24,1229.00 719.00,1229.48 719.00,1234.51 C719.00,1240.74 720.36,1241.36 733.47,1241.10 C744.10,1240.89 745.44,1241.06 747.39,1242.90 C749.29,1244.68 751.12,1244.97 762.03,1245.25 C768.89,1245.43 774.87,1245.66 775.32,1245.78 C775.76,1245.90 777.00,1245.53 778.07,1244.96 Z M1301.32,1243.61 C1304.98,1241.51 1306.88,1241.20 1316.45,1241.08 C1328.47,1240.93 1331.00,1239.90 1331.00,1235.17 C1331.00,1229.85 1328.86,1229.00 1315.48,1229.00 C1304.59,1229.00 1302.98,1228.77 1300.60,1226.90 C1298.14,1224.96 1296.92,1224.83 1284.88,1225.15 C1269.44,1225.56 1269.00,1225.85 1269.00,1235.50 C1269.00,1244.65 1269.38,1244.91 1283.50,1245.26 C1290.10,1245.43 1295.87,1245.67 1296.32,1245.78 C1296.77,1245.90 1299.02,1244.92 1301.32,1243.61 Z M779.26,1207.60 C779.67,1206.99 779.90,1203.12 779.76,1199.00 L779.50,1191.50 L765.50,1190.99 C753.74,1190.56 751.02,1190.74 748.50,1192.11 C746.09,1193.43 743.22,1193.69 733.79,1193.42 C722.20,1193.09 722.06,1193.11 720.04,1195.68 C717.16,1199.33 717.38,1203.55 720.55,1205.63 C722.71,1207.04 724.84,1207.21 734.35,1206.70 C744.40,1206.16 745.91,1206.30 748.54,1208.03 C751.23,1209.79 752.70,1209.90 764.99,1209.33 C772.97,1208.96 778.81,1208.25 779.26,1207.60 Z M1300.50,1208.34 C1302.73,1207.12 1306.83,1206.61 1316.50,1206.35 C1327.27,1206.06 1329.71,1205.71 1330.75,1204.31 C1332.41,1202.06 1332.33,1198.92 1330.54,1196.37 C1329.23,1194.48 1327.80,1194.24 1315.51,1193.77 C1304.91,1193.36 1301.54,1192.89 1300.14,1191.63 C1298.68,1190.30 1295.95,1190.00 1285.50,1190.00 C1269.50,1190.00 1269.00,1190.31 1269.00,1200.10 C1269.00,1204.43 1269.45,1207.17 1270.25,1207.69 C1271.67,1208.61 1281.37,1209.61 1291.00,1209.84 C1295.39,1209.94 1298.47,1209.45 1300.50,1208.34 Z M1024.07,1196.25 C975.18,1196.01 969.45,1195.82 967.82,1194.34 C966.24,1192.90 966.00,1190.98 966.00,1179.55 C966.00,1170.65 965.61,1166.01 964.80,1165.20 C963.98,1164.38 959.13,1164.00 949.50,1164.00 C939.87,1164.00 935.02,1163.62 934.20,1162.80 C933.40,1162.00 933.00,1157.52 933.00,1149.23 C933.00,1142.43 932.53,1136.00 931.96,1134.93 C931.03,1133.18 929.77,1133.00 918.66,1133.00 C910.46,1133.00 906.00,1132.60 905.20,1131.80 C903.61,1130.21 903.45,950.90 905.04,947.93 C906.03,946.08 907.48,946.00 940.00,946.00 C972.52,946.00 973.97,946.08 974.96,947.93 C975.65,949.22 976.00,976.78 976.00,1030.32 C976.00,1106.08 976.10,1110.91 977.79,1112.98 C980.02,1115.75 986.52,1117.03 994.55,1116.30 C1002.63,1115.56 1004.00,1116.88 1004.00,1125.37 C1004.00,1128.88 1004.52,1132.12 1005.20,1132.80 C1006.89,1134.49 1042.11,1134.49 1043.80,1132.80 C1044.46,1132.14 1045.00,1129.04 1045.00,1125.91 C1045.00,1116.91 1046.44,1115.79 1058.20,1115.63 C1073.32,1115.42 1072.00,1119.96 1072.00,1068.28 C1072.00,1041.06 1072.38,1024.17 1073.01,1022.99 C1073.93,1021.26 1075.29,1021.12 1089.44,1021.23 C1100.79,1021.33 1105.28,1021.02 1106.43,1020.06 C1107.75,1018.97 1108.00,1015.95 1108.00,1001.49 C1108.00,984.44 1107.97,984.23 1105.75,983.63 C1104.51,983.30 1097.12,983.02 1089.32,983.01 C1077.78,983.00 1074.85,982.71 1073.57,981.43 C1072.28,980.14 1072.00,977.12 1072.00,964.36 C1072.00,955.50 1072.45,948.03 1073.04,946.92 C1074.02,945.09 1075.10,944.98 1089.79,945.21 C1098.43,945.35 1106.06,945.11 1106.75,944.67 C1107.66,944.10 1108.00,939.75 1108.00,928.66 C1108.00,907.91 1107.03,909.00 1125.62,909.00 C1133.71,909.00 1140.99,909.46 1142.07,910.04 C1143.86,911.00 1144.00,912.28 1144.00,927.91 C1144.00,941.57 1143.72,944.99 1142.52,945.99 C1141.44,946.88 1136.78,947.12 1125.48,946.86 C1112.47,946.56 1109.77,946.75 1108.98,948.00 C1107.74,949.95 1107.74,980.04 1108.98,982.00 C1109.75,983.23 1112.85,983.51 1125.98,983.57 C1136.34,983.62 1142.44,984.04 1143.15,984.75 C1144.62,986.22 1144.36,1129.86 1142.89,1131.63 C1142.24,1132.42 1137.92,1132.86 1130.20,1132.92 C1120.47,1133.00 1118.29,1133.30 1117.25,1134.70 C1116.41,1135.83 1116.00,1140.39 1116.00,1148.61 C1116.00,1155.33 1115.73,1161.55 1115.39,1162.42 C1114.88,1163.76 1112.59,1164.00 1100.37,1164.00 L1085.95,1164.00 L1084.98,1166.57 C1084.44,1167.98 1084.00,1174.86 1084.00,1181.87 C1084.00,1194.85 1083.36,1197.27 1080.05,1196.76 C1079.20,1196.63 1054.01,1196.40 1024.07,1196.25 Z M779.00,1173.50 C780.12,1172.15 780.58,1159.75 779.57,1158.11 C778.60,1156.55 750.59,1156.61 747.68,1158.18 C746.41,1158.87 740.65,1159.42 733.79,1159.49 C723.92,1159.60 721.76,1159.91 720.04,1161.46 C717.65,1163.63 717.39,1167.69 719.47,1170.65 C720.83,1172.59 721.90,1172.75 733.93,1172.81 C741.20,1172.84 747.72,1173.33 748.71,1173.92 C751.22,1175.41 777.72,1175.04 779.00,1173.50 Z M1300.68,1173.86 C1302.23,1173.24 1309.27,1172.68 1316.33,1172.61 C1327.80,1172.51 1329.31,1172.29 1330.58,1170.56 C1332.58,1167.82 1332.34,1164.34 1330.00,1162.00 C1328.26,1160.26 1326.67,1160.00 1317.63,1160.00 C1310.96,1160.00 1305.73,1159.46 1303.00,1158.50 C1298.17,1156.79 1275.76,1156.38 1271.70,1157.92 C1269.66,1158.70 1269.18,1159.70 1268.73,1164.17 C1267.96,1171.74 1269.48,1173.79 1276.24,1174.26 C1288.14,1175.09 1298.04,1174.93 1300.68,1173.86 Z M778.89,1138.53 C780.71,1136.72 781.46,1128.24 780.11,1124.75 L779.05,1122.00 L764.99,1122.00 C753.54,1122.00 750.46,1122.31 748.38,1123.67 C746.35,1125.00 743.48,1125.32 734.17,1125.26 C720.62,1125.16 718.00,1126.12 718.00,1131.19 C718.00,1137.22 719.81,1138.00 733.90,1138.04 C743.09,1138.06 747.18,1138.47 749.00,1139.53 C752.33,1141.48 776.74,1140.66 778.89,1138.53 Z M1301.00,1139.50 C1302.79,1138.47 1307.08,1138.06 1316.18,1138.04 C1326.34,1138.01 1329.17,1137.69 1330.43,1136.43 C1332.31,1134.55 1332.51,1128.67 1330.75,1127.21 C1330.06,1126.65 1323.75,1125.96 1316.72,1125.68 C1306.83,1125.30 1303.33,1124.79 1301.26,1123.43 C1299.02,1121.97 1296.44,1121.70 1285.61,1121.81 C1270.34,1121.96 1269.83,1122.24 1269.21,1130.72 C1268.56,1139.74 1269.91,1140.36 1291.00,1140.78 C1295.92,1140.88 1299.36,1140.44 1301.00,1139.50 Z M778.80,1104.80 C780.47,1103.13 780.38,1090.56 778.70,1089.16 C776.76,1087.56 750.36,1087.46 748.44,1089.05 C747.38,1089.93 743.22,1090.24 734.48,1090.10 C722.38,1089.90 721.94,1089.97 719.51,1092.40 C716.42,1095.48 716.31,1098.64 719.17,1101.69 C721.22,1103.87 722.08,1104.00 733.92,1104.02 C740.84,1104.02 747.17,1104.47 748.00,1105.00 C750.25,1106.45 777.32,1106.28 778.80,1104.80 Z M1301.54,1104.99 C1303.00,1104.43 1309.90,1103.74 1316.85,1103.46 C1327.08,1103.05 1329.74,1102.63 1330.75,1101.28 C1332.42,1099.06 1332.33,1095.92 1330.53,1093.34 C1329.19,1091.43 1327.87,1091.20 1316.28,1090.82 C1308.62,1090.57 1302.57,1089.89 1301.18,1089.13 C1298.70,1087.77 1276.98,1087.24 1273.18,1088.44 C1269.16,1089.72 1267.63,1100.63 1271.00,1104.00 C1272.79,1105.79 1274.33,1106.00 1285.93,1106.00 C1293.05,1106.00 1300.07,1105.54 1301.54,1104.99 Z M779.41,1069.95 C780.82,1068.59 781.30,1058.83 780.11,1055.75 L779.05,1053.00 L764.25,1053.00 C752.51,1053.00 748.99,1053.32 747.24,1054.55 C745.52,1055.75 742.48,1056.06 733.50,1055.93 C720.51,1055.75 719.00,1056.35 719.00,1061.69 C719.00,1068.68 719.63,1069.00 733.42,1069.00 C742.12,1069.00 746.77,1069.44 749.14,1070.47 C751.78,1071.63 755.28,1071.83 765.50,1071.39 C772.65,1071.09 778.91,1070.44 779.41,1069.95 Z M1301.50,1070.47 C1304.02,1069.56 1309.43,1069.02 1316.14,1069.02 C1328.55,1069.00 1331.33,1067.71 1331.33,1062.01 C1331.33,1056.99 1329.14,1056.00 1317.97,1056.00 C1312.38,1056.00 1306.27,1055.38 1303.45,1054.54 C1300.42,1053.62 1293.75,1053.02 1285.73,1052.94 C1269.98,1052.77 1269.00,1053.30 1269.00,1062.00 C1269.00,1070.20 1270.03,1070.85 1283.54,1071.25 C1289.57,1071.43 1295.17,1071.65 1296.00,1071.74 C1296.83,1071.84 1299.30,1071.26 1301.50,1070.47 Z M390.01,1042.00 C394.86,1039.52 396.00,1037.48 396.00,1031.29 C396.00,1025.49 394.25,1022.68 388.97,1019.99 C383.87,1017.38 383.17,1017.45 377.69,1021.08 C369.98,1026.19 369.06,1035.21 375.66,1041.01 C379.77,1044.61 384.27,1044.92 390.01,1042.00 Z M1670.23,1042.95 C1674.62,1041.73 1679.00,1036.57 1679.00,1032.62 C1679.00,1025.97 1672.06,1018.00 1666.28,1018.00 C1660.07,1018.00 1650.88,1029.15 1652.95,1034.17 C1654.66,1038.31 1657.49,1041.06 1661.54,1042.50 C1666.40,1044.23 1665.75,1044.20 1670.23,1042.95 Z M778.80,1035.80 C780.11,1034.49 780.46,1021.27 779.23,1019.34 C778.74,1018.57 773.54,1018.08 763.82,1017.87 C751.05,1017.59 748.91,1017.77 747.25,1019.27 C745.66,1020.72 743.27,1021.00 732.73,1021.00 C720.83,1021.00 720.03,1021.13 718.56,1023.22 C716.44,1026.25 716.60,1029.20 719.04,1031.81 C720.92,1033.83 722.04,1034.00 733.29,1034.04 C741.99,1034.06 746.22,1034.48 748.00,1035.50 C751.27,1037.37 776.98,1037.62 778.80,1035.80 Z M1301.27,1035.45 C1303.66,1034.22 1307.65,1033.72 1316.62,1033.53 C1323.29,1033.39 1329.22,1032.98 1329.79,1032.63 C1331.81,1031.38 1332.26,1026.05 1330.57,1023.46 C1329.00,1021.07 1328.59,1021.00 1316.73,1020.96 C1308.02,1020.94 1303.78,1020.52 1302.00,1019.50 C1300.18,1018.46 1295.79,1018.06 1285.79,1018.04 C1269.74,1017.99 1269.71,1018.01 1270.20,1028.25 C1270.58,1036.11 1271.13,1036.41 1286.36,1036.81 C1295.76,1037.06 1298.68,1036.80 1301.27,1035.45 Z M780.09,999.84 C781.52,997.15 780.64,987.18 778.81,985.45 C776.81,983.58 750.58,982.84 748.27,984.60 C747.01,985.55 742.84,985.95 733.87,985.97 C720.22,986.00 719.50,986.27 718.43,991.61 C718.01,993.72 718.44,995.29 720.00,997.27 L722.15,1000.01 L733.35,999.59 C741.61,999.29 745.19,999.54 747.02,1000.56 C748.80,1001.54 753.67,1001.94 764.21,1001.96 C778.30,1002.00 778.98,1001.91 780.09,999.84 Z M1302.65,1000.50 C1305.10,999.48 1309.72,999.00 1317.12,999.00 C1326.67,999.00 1328.25,998.75 1330.00,997.00 C1332.31,994.69 1332.58,991.18 1330.65,988.54 C1329.49,986.96 1327.47,986.64 1315.95,986.28 C1308.60,986.04 1301.81,985.44 1300.86,984.93 C1299.91,984.42 1292.82,984.00 1285.10,984.00 C1268.82,984.00 1269.00,983.89 1269.00,993.88 C1269.00,998.56 1269.39,1000.13 1270.75,1000.92 C1273.62,1002.59 1298.44,1002.26 1302.65,1000.50 Z M779.17,965.76 C780.44,963.77 780.15,951.55 778.80,950.20 C776.86,948.26 750.07,948.56 747.22,950.56 C745.64,951.67 743.16,952.04 738.74,951.84 C735.31,951.68 729.68,951.66 726.23,951.78 C720.19,951.99 719.91,952.12 718.36,955.36 C716.97,958.28 716.94,959.11 718.14,961.61 L719.52,964.50 L733.51,965.17 C741.20,965.54 750.20,966.28 753.50,966.81 C761.54,968.09 778.12,967.42 779.17,965.76 Z M1301.60,966.04 C1303.20,965.51 1310.09,964.89 1316.93,964.66 C1327.46,964.30 1329.55,963.97 1330.68,962.43 C1332.26,960.26 1332.39,956.59 1330.96,953.93 C1330.03,952.19 1328.77,952.00 1317.93,952.00 C1309.53,952.00 1304.86,951.55 1302.35,950.50 C1298.11,948.73 1275.04,948.38 1271.93,950.04 C1270.33,950.89 1270.00,952.17 1270.00,957.41 C1270.00,964.65 1270.75,965.67 1276.51,966.26 C1284.68,967.09 1298.80,966.97 1301.60,966.04 Z M779.64,931.84 C780.87,930.49 781.03,928.78 780.47,923.32 C780.08,919.57 779.31,915.94 778.76,915.25 C778.04,914.36 773.87,914.00 764.34,914.00 C753.40,914.00 750.45,914.31 748.33,915.70 C746.18,917.11 743.65,917.36 733.44,917.13 C722.13,916.87 720.99,917.01 719.08,918.92 C716.45,921.55 716.42,925.42 719.00,928.00 C720.77,929.77 722.34,930.00 732.75,930.01 C742.85,930.01 744.92,930.30 747.50,932.02 C750.20,933.83 751.89,934.01 764.30,933.79 C775.80,933.58 778.36,933.26 779.64,931.84 Z M1302.32,931.80 C1304.33,930.70 1309.49,930.25 1322.56,930.07 C1329.09,929.98 1331.40,928.29 1331.40,923.62 C1331.40,921.63 1330.89,919.49 1330.26,918.86 C1329.50,918.10 1324.92,917.78 1316.74,917.90 C1305.83,918.06 1304.08,917.85 1301.90,916.13 C1298.81,913.71 1299.04,913.74 1284.44,913.88 C1276.53,913.96 1271.80,914.43 1270.69,915.25 C1268.08,917.18 1267.94,929.75 1270.51,931.63 C1272.98,933.43 1299.08,933.57 1302.32,931.80 Z M778.15,897.92 C779.71,897.09 780.00,895.69 780.00,889.09 C780.00,884.02 779.56,880.89 778.75,880.24 C778.01,879.64 771.75,879.33 763.40,879.47 C750.49,879.69 749.05,879.90 746.22,882.00 C743.38,884.09 742.64,884.20 737.31,883.30 C721.40,880.60 713.96,884.47 719.02,892.80 L721.02,896.09 L733.26,895.94 C741.96,895.83 746.24,896.18 748.07,897.15 C751.17,898.81 775.34,899.42 778.15,897.92 Z M1302.65,896.50 C1305.13,895.47 1309.77,895.00 1317.60,895.00 C1328.43,895.00 1329.03,894.89 1330.50,892.64 C1332.13,890.15 1331.73,887.70 1329.19,884.75 C1327.92,883.26 1325.87,883.00 1315.57,883.00 C1306.08,883.00 1302.95,882.65 1301.17,881.40 C1299.32,880.11 1296.26,879.83 1285.19,879.93 C1269.34,880.07 1269.00,880.25 1269.00,888.69 C1269.00,897.31 1270.26,898.00 1286.03,898.00 C1295.35,898.00 1300.09,897.57 1302.65,896.50 Z M571.66,839.25 C574.97,833.91 574.36,834.00 605.49,834.00 C626.80,834.00 634.92,833.68 635.80,832.80 C637.68,830.92 637.38,816.53 635.43,814.57 C634.07,813.22 629.93,813.00 605.36,813.00 C589.03,813.00 576.10,812.59 575.07,812.04 C574.08,811.51 572.71,809.71 572.02,808.04 C571.32,806.37 570.02,805.00 569.13,805.01 C568.23,805.01 560.75,804.82 552.50,804.59 C544.25,804.36 534.46,804.13 530.75,804.08 C519.01,803.94 520.00,809.88 520.00,739.64 L520.00,679.29 L502.27,661.56 C485.49,644.79 484.37,643.88 481.52,644.50 C479.86,644.86 474.18,645.39 468.89,645.67 C460.04,646.14 458.90,645.98 454.39,643.66 C448.47,640.61 441.80,634.22 438.29,628.23 C436.00,624.32 435.69,622.70 435.66,614.15 C435.62,605.33 435.86,604.07 438.47,599.50 C442.76,591.98 446.82,588.14 453.89,584.91 C470.52,577.33 488.41,583.98 496.97,600.94 C500.25,607.43 500.96,614.99 498.98,622.13 C498.39,624.25 498.33,626.71 498.83,628.06 C499.30,629.33 508.70,639.39 519.73,650.43 L539.77,670.50 L540.38,686.50 C540.72,695.30 540.99,720.36 541.00,742.19 L541.00,781.89 L543.22,783.44 C544.91,784.63 548.13,785.00 556.68,785.00 C567.69,785.00 567.94,784.95 569.70,782.36 C570.69,780.91 572.70,778.43 574.17,776.86 L576.85,774.00 L605.72,774.00 C626.85,774.00 634.92,773.68 635.80,772.80 C636.65,771.95 637.00,765.88 637.00,751.86 L637.00,732.11 L642.68,725.81 C645.80,722.34 658.51,709.26 670.92,696.75 L693.48,674.00 L710.74,674.00 C726.67,674.00 728.15,673.85 730.00,672.00 C731.91,670.09 732.00,668.67 732.00,638.93 C732.00,607.20 732.35,604.00 735.86,604.00 C736.85,604.00 738.63,602.96 739.82,601.69 C741.83,599.56 742.02,598.10 742.46,581.98 C743.01,562.36 743.41,563.83 734.59,553.57 C727.20,544.97 687.11,506.99 684.29,505.92 C682.49,505.24 680.86,505.55 677.70,507.17 C671.55,510.34 660.45,510.14 653.00,506.74 C634.98,498.50 627.97,481.34 635.88,464.82 C647.08,441.43 679.09,439.32 693.03,461.04 C695.93,465.57 696.30,466.99 696.68,475.29 C696.92,480.35 697.29,485.41 697.52,486.52 C697.98,488.82 708.51,499.73 738.34,528.84 C751.46,541.64 759.72,550.48 760.65,552.72 C761.77,555.39 762.22,561.72 762.47,578.35 L762.81,600.44 L765.66,602.69 C772.57,608.17 772.00,604.89 772.00,639.00 C772.00,676.75 770.87,674.00 786.43,674.00 C794.58,674.00 797.20,673.66 798.43,672.43 C799.79,671.07 800.00,666.71 800.00,639.86 C800.00,621.67 800.40,608.12 800.97,607.05 C801.51,606.05 803.10,604.94 804.51,604.59 C805.98,604.22 807.48,602.86 808.04,601.41 C809.25,598.21 809.31,553.94 808.11,550.82 C807.00,547.94 793.38,534.02 768.23,510.04 C757.62,499.93 748.69,490.61 748.36,489.31 C747.90,487.45 748.79,485.85 752.58,481.73 C761.03,472.55 757.61,470.54 794.00,506.09 C811.70,523.36 826.91,538.85 827.82,540.50 C829.20,543.01 829.55,548.06 829.98,571.39 C830.47,597.52 830.62,599.36 832.41,600.39 C838.78,604.07 840.02,606.19 841.02,615.00 C841.55,619.67 841.99,634.04 841.99,646.92 C842.00,675.65 841.20,674.00 855.08,674.00 C862.64,674.00 865.21,673.64 866.43,672.43 C867.79,671.07 868.00,666.66 868.00,639.38 L868.00,607.91 L870.75,605.38 C872.26,604.00 874.29,602.14 875.25,601.26 C876.83,599.80 877.00,597.07 877.00,572.39 C877.00,555.85 876.59,544.05 875.95,542.38 C874.78,539.29 841.54,506.10 818.00,484.53 C809.48,476.72 799.29,466.76 795.36,462.40 C787.26,453.42 785.00,447.95 785.00,437.37 C785.00,429.75 783.66,426.52 779.86,424.94 C775.88,423.29 769.74,417.13 766.39,411.40 C763.81,407.00 763.59,405.80 763.61,396.56 C763.63,385.19 764.56,382.60 771.17,375.43 C779.14,366.79 789.55,363.08 800.78,364.89 C808.06,366.06 813.38,369.24 819.05,375.83 C827.05,385.11 828.78,394.44 824.81,406.73 C822.89,412.67 821.65,414.47 814.71,421.42 L806.80,429.33 L807.51,436.91 C807.96,441.73 808.88,445.41 810.04,447.00 C811.93,449.59 834.01,471.53 873.00,509.55 C886.28,522.50 895.98,532.76 896.67,534.58 C897.44,536.61 897.95,548.16 898.17,568.45 L898.50,599.23 L900.81,600.87 C902.08,601.76 904.33,603.47 905.81,604.66 L908.50,606.82 L909.00,638.99 C909.47,669.37 909.61,671.24 911.44,672.58 C913.95,674.42 933.01,674.59 934.80,672.80 C935.68,671.92 936.00,663.10 936.00,639.35 L936.00,607.09 L938.62,605.30 C940.06,604.31 942.37,602.46 943.74,601.18 L946.23,598.86 L945.82,552.68 C945.49,516.26 945.12,505.97 944.05,504.00 C940.89,498.20 929.81,486.11 907.65,464.26 C894.68,451.48 883.40,439.74 882.59,438.17 C881.41,435.90 881.05,429.50 880.81,406.54 L880.50,377.77 L878.13,376.13 C872.86,372.50 864.90,364.50 862.52,360.45 C860.30,356.66 860.00,355.00 860.00,346.54 C860.00,337.90 860.29,336.36 862.96,331.09 C866.06,324.95 871.52,319.55 878.41,315.82 C881.85,313.96 884.09,313.61 892.53,313.60 C902.20,313.60 902.72,313.71 907.25,316.83 C912.62,320.52 918.47,327.15 921.75,333.27 C923.61,336.74 924.00,339.04 924.00,346.51 C924.00,355.19 923.86,355.76 920.42,361.02 C915.67,368.28 912.29,371.78 907.77,374.10 C901.59,377.28 901.25,378.83 901.67,402.50 C901.87,414.05 902.29,425.47 902.60,427.87 C903.24,432.89 901.21,430.70 939.18,467.26 C956.70,484.13 964.14,491.95 964.85,494.26 C965.42,496.13 966.04,518.57 966.31,547.50 C966.57,575.00 967.10,598.28 967.49,599.23 C967.88,600.18 969.70,601.89 971.54,603.02 C973.52,604.25 975.28,606.39 975.87,608.29 C976.42,610.06 977.10,624.99 977.39,641.48 C977.86,668.43 978.08,671.59 979.65,672.73 C981.96,674.42 1001.12,674.48 1002.80,672.80 C1003.68,671.92 1004.00,663.20 1004.00,639.80 C1004.00,604.51 1003.45,607.45 1011.00,602.64 L1014.50,600.42 L1014.72,458.54 L1014.94,316.67 L1011.31,313.58 C995.60,300.26 992.00,294.49 992.00,282.61 C992.00,274.34 997.03,263.71 1003.31,258.69 C1012.11,251.66 1016.17,250.00 1024.53,250.00 C1031.39,250.00 1032.93,250.38 1038.99,253.56 C1045.66,257.07 1049.23,260.60 1053.97,268.39 C1056.05,271.81 1056.35,273.58 1056.42,282.91 C1056.50,293.35 1056.44,293.64 1052.95,299.51 C1050.39,303.83 1047.66,306.71 1043.13,309.87 C1039.68,312.28 1036.38,315.43 1035.81,316.87 C1034.44,320.30 1035.51,598.21 1036.89,600.80 C1037.42,601.78 1038.99,603.19 1040.40,603.94 C1041.80,604.70 1043.37,606.70 1043.90,608.40 C1044.42,610.11 1045.14,625.00 1045.49,641.50 C1046.05,667.48 1046.36,671.67 1047.76,672.75 C1049.94,674.43 1069.13,674.47 1070.80,672.80 C1071.68,671.92 1072.00,663.20 1072.00,639.80 C1072.00,609.33 1072.08,607.92 1074.00,606.00 C1075.10,604.90 1076.90,604.00 1078.00,604.00 C1079.10,604.00 1080.90,603.10 1082.00,602.00 C1083.95,600.05 1084.00,598.67 1084.00,547.09 L1084.00,494.18 L1087.85,489.34 C1092.10,484.01 1119.98,456.55 1132.36,445.50 C1136.68,441.65 1141.96,436.30 1144.10,433.62 L1148.00,428.74 L1148.00,403.87 C1148.00,375.98 1148.47,377.85 1140.06,372.54 C1137.86,371.15 1134.35,367.85 1132.26,365.21 C1123.11,353.63 1124.81,331.86 1135.66,321.89 C1143.26,314.91 1145.68,314.00 1156.77,314.00 C1165.34,314.00 1167.79,314.36 1171.29,316.15 C1177.26,319.20 1186.65,329.10 1187.95,333.72 C1191.57,346.62 1190.00,357.36 1183.30,365.58 C1180.89,368.54 1176.90,372.14 1174.44,373.59 C1171.97,375.03 1169.50,377.06 1168.95,378.09 C1168.34,379.23 1168.00,391.31 1168.06,409.02 C1168.16,435.27 1168.00,438.35 1166.40,440.79 C1164.47,443.74 1158.42,449.87 1138.54,469.02 C1131.41,475.88 1120.72,486.66 1114.79,492.97 L1104.00,504.43 L1104.02,551.97 C1104.02,578.11 1104.36,599.96 1104.77,600.52 C1105.17,601.09 1106.73,602.33 1108.23,603.28 C1113.98,606.94 1114.28,608.72 1114.71,641.46 C1114.97,660.65 1115.49,671.89 1116.18,672.71 C1116.93,673.62 1120.46,674.00 1128.02,674.00 C1136.91,674.00 1138.89,673.73 1139.39,672.42 C1139.73,671.55 1140.00,656.89 1140.00,639.85 C1140.00,608.64 1140.38,605.00 1143.64,605.00 C1144.50,605.00 1146.73,603.47 1148.60,601.60 L1152.00,598.20 L1151.96,566.85 L1151.93,535.50 L1195.48,492.50 C1219.43,468.85 1240.14,447.95 1241.51,446.06 C1243.51,443.29 1244.00,441.42 1244.00,436.58 L1244.00,430.54 L1236.60,423.02 C1226.04,412.28 1224.00,407.93 1224.00,396.13 C1224.00,387.54 1224.25,386.31 1226.97,381.62 C1232.84,371.48 1238.77,366.74 1247.78,364.96 C1266.97,361.19 1285.77,374.70 1287.73,393.67 C1288.90,405.04 1281.23,419.16 1270.46,425.47 C1267.95,426.94 1265.47,429.27 1264.95,430.64 C1264.43,432.01 1264.00,437.62 1264.00,443.11 L1264.00,453.09 L1259.25,458.17 C1256.64,460.96 1239.08,478.12 1220.23,496.31 C1201.38,514.49 1182.81,532.91 1178.98,537.23 L1172.00,545.10 L1172.00,573.00 L1172.00,600.91 L1174.57,602.70 C1175.99,603.69 1178.29,605.42 1179.69,606.55 L1182.24,608.60 L1182.61,639.94 C1182.87,661.66 1183.34,671.71 1184.14,672.67 C1185.03,673.74 1187.87,674.00 1196.40,673.78 L1207.50,673.50 L1208.05,641.00 C1208.35,623.12 1208.69,608.40 1208.80,608.28 C1208.91,608.16 1211.47,606.23 1214.50,604.00 L1220.00,599.94 L1220.00,572.53 C1220.00,556.35 1220.42,544.03 1221.02,542.45 C1222.16,539.44 1251.75,509.09 1274.42,487.68 L1289.33,473.58 L1294.67,479.45 C1303.39,489.05 1304.32,487.34 1273.84,517.55 C1259.45,531.81 1245.95,545.66 1243.84,548.33 L1240.00,553.18 L1240.00,576.59 C1240.00,597.64 1240.18,600.15 1241.75,601.51 C1242.71,602.34 1245.05,604.30 1246.94,605.87 C1250.97,609.22 1250.67,606.34 1250.86,644.18 C1250.98,666.98 1251.23,671.09 1252.57,672.43 C1253.80,673.66 1256.42,674.00 1264.54,674.00 C1273.79,674.00 1275.04,673.79 1275.96,672.07 C1276.61,670.86 1277.01,659.08 1277.01,640.82 C1277.03,619.36 1277.36,610.84 1278.28,609.03 C1278.97,607.67 1281.44,605.28 1283.77,603.71 L1288.00,600.87 L1288.00,577.58 L1288.00,554.30 L1291.18,549.90 C1294.45,545.37 1307.37,532.25 1335.75,504.62 L1352.00,488.80 L1352.00,478.64 C1352.00,469.70 1352.31,467.89 1354.57,463.49 C1357.61,457.57 1363.70,451.70 1370.22,448.39 C1374.08,446.43 1376.46,446.00 1383.34,446.00 C1397.29,446.00 1407.34,451.80 1413.07,463.13 C1415.63,468.22 1416.00,470.02 1416.00,477.54 C1416.00,491.79 1411.23,499.32 1397.99,506.01 C1392.96,508.55 1390.91,509.00 1384.49,509.00 C1378.82,509.00 1375.91,508.48 1372.88,506.94 C1370.67,505.81 1368.23,505.02 1367.48,505.19 C1365.96,505.53 1346.86,523.38 1323.27,546.50 L1307.97,561.50 L1307.98,580.17 C1307.99,590.44 1308.28,599.57 1308.62,600.46 C1308.97,601.35 1310.98,602.97 1313.09,604.05 C1315.20,605.12 1317.40,606.88 1317.97,607.94 C1318.61,609.14 1319.00,621.21 1319.00,640.11 C1319.00,666.84 1319.19,670.55 1320.65,672.17 C1322.14,673.81 1324.12,674.00 1339.90,673.99 L1357.50,673.98 L1384.47,701.24 L1411.43,728.50 L1412.14,736.50 C1412.52,740.90 1412.88,750.67 1412.92,758.21 C1412.99,770.71 1413.17,772.02 1414.93,772.96 C1416.14,773.61 1427.79,774.00 1445.87,774.00 L1474.86,774.00 L1476.73,776.75 C1477.76,778.26 1479.13,780.74 1479.78,782.25 L1480.96,785.00 L1494.00,785.00 L1507.05,785.00 L1508.04,782.40 C1508.65,780.79 1509.01,759.30 1508.98,726.26 L1508.93,672.73 L1514.77,665.63 C1517.98,661.72 1527.33,652.38 1535.55,644.87 C1543.77,637.36 1550.93,630.03 1551.45,628.59 C1552.11,626.77 1551.99,624.49 1551.05,621.23 C1548.71,613.03 1548.72,610.48 1551.09,603.97 C1554.04,595.87 1561.41,588.12 1569.62,584.48 C1574.69,582.23 1576.53,581.93 1583.00,582.29 C1593.83,582.90 1600.48,585.70 1606.21,592.06 C1619.09,606.36 1617.45,627.12 1602.50,639.00 C1592.93,646.60 1587.78,647.79 1574.42,645.46 L1565.82,643.96 L1553.26,655.73 C1538.15,669.88 1531.41,677.74 1530.08,682.76 C1529.47,685.06 1529.17,707.86 1529.30,742.00 C1529.46,787.12 1529.24,798.11 1528.13,800.75 L1526.76,804.00 L1507.63,804.09 C1486.22,804.20 1480.66,804.47 1478.96,805.52 C1478.32,805.92 1477.17,807.75 1476.40,809.58 L1475.01,812.91 L1445.55,813.21 C1423.42,813.43 1415.78,813.82 1414.83,814.77 C1414.13,815.47 1413.39,819.13 1413.17,822.91 C1412.84,828.87 1413.07,830.07 1414.89,831.89 C1416.94,833.94 1417.84,834.00 1445.92,834.00 L1474.83,834.00 L1478.00,838.00 L1481.17,842.00 L1507.85,842.00 L1534.53,842.00 L1549.16,827.25 C1557.21,819.14 1564.52,811.06 1565.40,809.30 C1566.80,806.50 1567.00,799.91 1567.02,756.30 C1567.04,728.91 1567.46,704.74 1567.95,702.59 C1568.98,698.19 1570.91,696.33 1582.50,688.64 C1586.90,685.72 1591.62,682.58 1593.00,681.65 C1594.38,680.72 1600.22,676.83 1606.00,673.01 C1611.78,669.18 1617.85,665.13 1619.50,664.01 C1622.84,661.74 1638.96,651.26 1652.00,642.89 C1656.67,639.89 1662.67,636.43 1665.32,635.20 C1667.97,633.97 1672.02,631.59 1674.32,629.91 C1676.62,628.24 1681.65,624.89 1685.50,622.46 C1689.35,620.04 1693.85,617.11 1695.50,615.96 C1697.15,614.80 1700.75,612.53 1703.50,610.92 C1714.31,604.58 1721.56,599.81 1722.75,598.25 C1725.97,594.04 1724.06,592.20 1704.39,580.62 C1701.70,579.04 1698.38,576.99 1697.00,576.06 C1695.62,575.13 1692.03,572.93 1689.00,571.16 C1679.89,565.82 1679.59,565.64 1676.91,563.88 C1675.49,562.94 1669.41,559.62 1663.41,556.48 C1657.41,553.35 1650.84,549.49 1648.81,547.90 C1646.78,546.30 1644.86,545.00 1644.54,545.00 C1644.22,545.00 1640.36,542.86 1635.98,540.25 C1622.00,531.93 1620.61,531.13 1614.82,528.06 C1611.70,526.40 1608.87,524.60 1608.53,524.05 C1608.19,523.50 1606.02,522.15 1603.71,521.03 C1601.39,519.92 1597.47,517.84 1595.00,516.42 C1592.53,515.00 1588.47,512.70 1586.00,511.32 C1583.53,509.94 1579.03,507.30 1576.00,505.46 C1572.97,503.61 1568.47,500.95 1566.00,499.54 C1558.98,495.55 1552.50,491.68 1549.36,489.61 C1547.79,488.56 1544.22,486.20 1541.43,484.36 C1538.64,482.51 1536.09,481.00 1535.76,481.00 C1535.44,481.00 1532.78,479.43 1529.86,477.50 C1526.94,475.58 1524.03,474.00 1523.40,474.00 C1522.76,474.00 1521.65,473.29 1520.93,472.42 C1520.21,471.55 1518.19,470.09 1516.45,469.17 C1511.85,466.75 1502.23,461.39 1496.82,458.23 C1482.22,449.70 1469.19,442.25 1467.00,441.19 C1465.62,440.52 1462.47,438.71 1460.00,437.18 C1457.53,435.64 1453.47,433.29 1451.00,431.95 C1448.53,430.62 1445.23,428.51 1443.67,427.26 C1442.12,426.02 1440.40,425.00 1439.85,425.00 C1439.30,425.00 1436.33,423.20 1433.26,421.00 C1430.19,418.80 1427.14,417.00 1426.49,417.00 C1425.84,417.00 1424.50,416.10 1423.50,415.00 C1422.50,413.90 1421.37,413.00 1420.98,413.00 C1420.58,413.00 1416.59,410.86 1412.10,408.25 C1403.82,403.43 1402.43,402.60 1390.61,395.50 C1386.94,393.30 1382.61,390.77 1380.99,389.88 C1379.36,388.99 1377.46,387.82 1376.76,387.28 C1376.07,386.75 1373.47,385.23 1371.00,383.92 C1368.53,382.60 1365.23,380.51 1363.67,379.26 C1362.12,378.02 1360.40,377.00 1359.85,377.00 C1359.31,377.00 1356.98,375.73 1354.68,374.17 C1352.38,372.61 1347.47,369.88 1343.76,368.09 C1340.05,366.30 1336.74,364.39 1336.40,363.84 C1336.06,363.29 1333.92,361.96 1331.64,360.89 C1329.36,359.82 1324.80,357.15 1321.50,354.97 C1318.20,352.78 1314.38,350.46 1313.00,349.80 C1311.62,349.15 1309.83,348.09 1309.00,347.46 C1308.17,346.82 1305.47,345.22 1303.00,343.91 C1300.53,342.60 1297.23,340.51 1295.67,339.26 C1294.12,338.02 1292.39,337.00 1291.83,337.00 C1291.27,337.00 1289.61,336.16 1288.15,335.14 C1285.70,333.43 1280.78,330.56 1272.00,325.74 C1270.08,324.69 1267.04,323.02 1265.26,322.04 C1263.48,321.07 1261.46,319.82 1260.76,319.28 C1260.07,318.73 1256.84,316.85 1253.58,315.08 C1250.32,313.32 1245.33,310.33 1242.48,308.44 C1239.63,306.55 1236.92,305.00 1236.47,305.00 C1235.71,305.00 1231.32,302.33 1217.33,293.32 C1214.49,291.50 1211.73,290.00 1211.20,290.00 C1210.68,290.00 1209.63,289.26 1208.87,288.35 C1208.12,287.43 1206.15,286.06 1204.50,285.29 C1202.85,284.52 1198.12,281.89 1194.00,279.44 C1189.88,276.99 1185.15,274.28 1183.50,273.42 C1181.85,272.56 1178.70,270.79 1176.50,269.47 C1174.30,268.15 1170.70,266.11 1168.50,264.92 C1166.30,263.74 1163.15,261.76 1161.50,260.53 C1159.85,259.30 1157.38,257.94 1156.00,257.53 C1154.62,257.11 1152.83,256.22 1152.00,255.56 C1150.42,254.30 1138.28,247.27 1134.00,245.15 C1128.30,242.31 1125.41,240.66 1123.95,239.40 C1123.10,238.66 1120.18,236.88 1117.45,235.43 C1114.73,233.99 1109.58,230.90 1106.00,228.58 C1097.11,222.81 1091.53,219.46 1077.50,211.50 C1070.90,207.75 1064.60,203.94 1063.50,203.04 C1062.40,202.13 1060.38,200.86 1059.00,200.22 C1057.62,199.57 1053.35,197.02 1049.50,194.53 C1045.65,192.05 1040.70,189.06 1038.50,187.89 C1036.30,186.73 1033.07,184.70 1031.32,183.39 C1025.80,179.25 1022.26,180.27 1006.56,190.47 C1002.13,193.36 997.15,196.48 995.50,197.43 C993.85,198.37 990.70,200.22 988.50,201.53 C986.30,202.85 982.02,205.30 979.00,206.97 C975.98,208.65 971.25,211.34 968.50,212.95 C965.75,214.56 961.92,216.74 960.00,217.80 C950.31,223.11 946.34,225.46 944.73,226.83 C942.64,228.62 934.47,233.81 927.61,237.72 C924.92,239.25 921.99,240.95 921.09,241.50 C913.39,246.22 907.91,249.39 895.31,256.40 C890.46,259.10 885.60,262.06 884.50,262.99 C882.17,264.94 875.58,268.78 865.00,274.32 C860.88,276.48 856.43,279.09 855.12,280.13 C853.80,281.16 852.34,282.00 851.86,282.00 C851.38,282.00 849.07,283.39 846.74,285.08 C844.41,286.78 841.15,288.82 839.50,289.62 C837.85,290.42 834.70,292.17 832.50,293.52 C830.30,294.86 827.38,296.51 826.00,297.18 C823.70,298.30 817.75,301.93 809.00,307.55 C807.08,308.79 801.90,311.70 797.50,314.02 C793.10,316.34 788.82,318.83 788.00,319.55 C787.17,320.27 785.37,321.36 784.00,321.96 C782.62,322.57 778.35,325.04 774.50,327.46 C767.45,331.90 744.61,345.46 736.74,349.88 C734.41,351.20 728.13,355.13 722.78,358.63 C717.43,362.14 712.43,365.00 711.66,365.00 C710.90,365.00 709.20,365.83 707.88,366.84 C706.57,367.84 700.77,371.29 695.00,374.48 C684.43,380.33 682.20,381.67 671.85,388.33 C668.74,390.34 665.14,392.44 663.85,393.00 C662.56,393.57 659.25,395.44 656.50,397.16 C653.75,398.88 647.67,402.32 643.00,404.81 C634.88,409.14 620.31,418.11 615.00,422.05 C611.68,424.52 581.50,442.42 575.50,445.48 C573.85,446.33 570.70,448.11 568.50,449.44 C566.30,450.78 562.02,453.26 559.00,454.95 C555.98,456.65 551.25,459.37 548.50,461.00 C541.66,465.05 538.19,467.01 531.88,470.36 C528.92,471.93 525.60,474.01 524.50,474.98 C523.40,475.95 521.32,477.36 519.89,478.12 C514.89,480.76 502.70,487.51 501.11,488.52 C500.22,489.08 497.02,491.12 494.00,493.05 C490.98,494.98 487.60,497.08 486.50,497.72 C485.40,498.35 480.90,500.98 476.50,503.57 C468.87,508.06 466.75,509.35 457.45,515.21 C455.22,516.62 451.17,518.95 448.45,520.39 C442.66,523.46 440.64,524.69 436.32,527.75 C434.57,528.99 432.76,530.00 432.29,530.00 C431.83,530.00 429.06,531.58 426.14,533.50 C423.22,535.42 420.55,537.00 420.22,537.00 C419.88,537.00 418.01,538.06 416.05,539.35 C403.40,547.71 394.72,553.16 389.50,555.99 C378.25,562.11 376.50,563.08 372.50,565.45 C370.30,566.76 366.02,569.15 363.00,570.78 C359.98,572.41 355.25,575.15 352.50,576.87 C349.75,578.59 346.15,580.66 344.50,581.48 C339.70,583.85 327.72,592.35 326.62,594.17 C325.90,595.36 326.02,596.33 327.06,597.58 C328.78,599.66 347.59,612.24 353.41,615.20 C355.66,616.35 358.85,618.29 360.50,619.51 C362.15,620.73 370.02,625.64 378.00,630.41 C391.20,638.32 414.67,653.31 426.00,661.08 C428.48,662.77 434.32,666.63 439.00,669.65 C443.68,672.68 448.62,676.16 450.00,677.39 C451.38,678.62 456.32,682.05 461.00,685.03 C474.19,693.41 480.58,698.60 482.36,702.36 C483.81,705.41 484.00,711.69 484.00,757.25 L484.00,808.70 L486.89,812.60 C489.85,816.60 500.95,827.59 511.33,836.82 L517.16,842.00 L543.56,842.00 L569.95,842.00 L571.66,839.25 Z M392.74,823.38 C395.23,821.81 399.02,815.06 398.97,812.29 C398.90,808.83 393.58,802.56 389.60,801.24 C381.65,798.62 372.00,804.85 372.00,812.60 C372.00,817.25 373.24,819.37 377.50,822.00 C384.11,826.09 387.90,826.43 392.74,823.38 Z M1671.89,822.48 C1676.36,818.44 1677.73,813.74 1675.98,808.45 C1674.28,803.29 1670.72,801.00 1664.43,801.00 C1659.60,801.00 1658.81,801.34 1655.57,804.75 C1652.47,808.02 1652.02,809.14 1652.02,813.50 C1652.03,819.41 1652.32,819.95 1657.39,823.37 C1662.93,827.11 1667.04,826.86 1671.89,822.48 Z M857.78,816.44 C859.88,814.97 860.00,814.20 859.99,801.69 C859.99,790.21 859.73,788.11 858.00,785.50 C856.29,782.92 856.01,780.79 856.01,770.33 C856.00,763.64 855.73,757.45 855.39,756.58 C854.66,754.66 847.03,754.37 845.20,756.20 C844.40,757.00 843.99,761.57 843.96,769.95 C843.94,778.94 843.52,783.21 842.50,785.00 C840.60,788.33 840.40,812.82 842.25,815.27 C843.03,816.30 845.37,817.05 848.50,817.28 C851.25,817.48 853.96,817.72 854.53,817.82 C855.09,817.92 856.56,817.30 857.78,816.44 Z M891.25,816.75 C892.59,815.72 892.91,813.08 893.09,801.50 C893.21,793.42 892.76,784.59 892.02,780.62 C891.32,776.83 891.00,771.25 891.32,768.21 C892.13,760.34 891.27,757.19 887.82,755.41 C881.07,751.92 878.39,757.07 879.47,771.48 C880.09,779.73 879.94,781.20 878.08,784.84 C876.31,788.32 876.00,790.73 876.00,801.27 C876.00,809.60 876.41,814.15 877.25,815.27 C878.03,816.30 880.37,817.05 883.50,817.28 C886.25,817.48 888.75,817.72 889.06,817.82 C889.37,817.92 890.35,817.44 891.25,816.75 Z M926.75,816.76 C928.75,815.16 928.48,787.14 926.45,784.23 C925.17,782.41 925.00,780.07 925.50,771.25 C926.22,758.55 925.29,755.68 920.27,755.19 C913.65,754.54 913.26,755.36 912.51,771.73 C911.29,798.11 911.38,814.55 912.75,816.21 C914.21,817.96 924.73,818.37 926.75,816.76 Z M962.75,816.74 C964.67,815.22 964.49,787.15 962.54,784.36 C961.53,782.92 960.94,778.60 960.64,770.39 C960.40,763.85 959.89,757.71 959.50,756.75 C958.99,755.51 957.67,755.00 954.96,755.00 C948.61,755.00 948.00,756.37 947.96,770.82 C947.94,779.92 947.53,784.21 946.50,786.00 C945.50,787.74 945.06,791.88 945.04,799.68 C945.00,810.34 945.95,815.74 948.10,817.06 C949.71,818.06 961.40,817.80 962.75,816.74 Z M997.07,815.93 C998.76,814.24 999.00,812.52 999.00,801.93 C999.00,794.11 998.56,789.10 997.75,787.68 C996.99,786.35 996.31,779.87 996.00,771.01 L995.50,756.53 L991.97,755.96 C990.02,755.64 987.98,755.10 987.42,754.76 C986.86,754.41 985.75,754.54 984.95,755.03 C983.81,755.74 983.49,758.74 983.43,769.22 C983.38,779.63 983.00,783.19 981.68,785.70 C980.37,788.21 980.00,791.63 980.00,801.45 C980.00,816.76 980.63,817.86 989.50,817.86 C993.74,817.86 995.62,817.38 997.07,815.93 Z M1032.76,815.00 C1033.75,813.12 1033.93,809.15 1033.49,799.00 C1032.10,766.51 1031.44,757.03 1030.47,756.06 C1028.28,753.88 1023.51,753.77 1020.96,755.83 C1018.59,757.76 1018.50,758.28 1018.48,770.17 C1018.47,778.07 1018.02,783.28 1017.23,784.68 C1015.60,787.57 1015.51,815.11 1017.13,816.73 C1017.78,817.38 1021.05,817.78 1024.85,817.68 C1030.78,817.52 1031.58,817.25 1032.76,815.00 Z M1066.98,816.53 C1067.75,815.59 1067.94,810.28 1067.57,799.34 C1067.28,790.63 1066.92,777.83 1066.77,770.91 C1066.46,756.46 1065.83,755.00 1059.90,755.00 C1053.88,755.00 1052.87,757.39 1053.05,771.15 C1053.13,777.39 1052.70,784.07 1052.10,785.99 C1050.72,790.37 1050.65,813.48 1052.00,816.00 C1052.82,817.53 1054.17,817.88 1059.43,817.88 C1063.61,817.88 1066.25,817.40 1066.98,816.53 Z M1102.34,816.06 C1103.07,815.34 1103.62,809.90 1103.83,801.55 C1104.09,790.55 1103.85,787.62 1102.47,784.95 C1101.20,782.49 1100.76,778.74 1100.65,769.51 C1100.48,755.51 1099.67,753.51 1094.59,754.54 C1088.84,755.70 1088.00,757.82 1087.96,771.36 C1087.94,780.00 1087.52,784.22 1086.50,786.00 C1085.47,787.80 1085.06,792.09 1085.04,801.25 C1084.99,817.14 1085.59,818.13 1095.06,817.57 C1098.43,817.37 1101.71,816.69 1102.34,816.06 Z M1137.64,815.47 C1139.59,812.81 1139.48,789.46 1137.50,786.00 C1136.47,784.19 1136.06,779.88 1136.04,770.45 C1136.01,761.68 1135.61,757.01 1134.80,756.20 C1132.81,754.21 1126.23,754.70 1125.04,756.93 C1124.47,758.00 1124.00,764.07 1124.00,770.44 C1124.00,780.10 1123.67,782.62 1122.00,785.74 C1120.31,788.89 1120.00,791.38 1120.00,801.74 C1120.00,816.96 1120.51,817.77 1129.98,817.51 C1134.83,817.37 1136.60,816.90 1137.64,815.47 Z M1172.14,815.88 C1172.67,815.09 1172.82,807.66 1172.49,798.50 C1172.17,789.70 1171.82,776.88 1171.71,770.00 C1171.59,763.12 1171.14,756.94 1170.69,756.25 C1169.48,754.38 1161.52,754.67 1159.87,756.65 C1158.44,758.37 1157.49,770.24 1156.41,799.96 C1155.95,812.66 1156.11,815.61 1157.28,816.46 C1159.40,818.01 1171.02,817.56 1172.14,815.88 Z M1206.91,816.56 C1208.65,815.48 1208.29,787.14 1206.50,784.00 C1205.51,782.27 1205.06,778.19 1205.04,770.82 C1204.99,756.24 1203.13,752.29 1197.68,755.15 C1194.17,757.00 1193.95,757.92 1194.16,770.00 C1194.32,779.49 1194.03,782.11 1192.51,785.00 C1190.95,787.97 1190.70,790.56 1190.87,802.00 C1191.03,812.36 1191.41,815.75 1192.51,816.59 C1194.02,817.73 1205.04,817.71 1206.91,816.56 Z M761.19,806.37 C763.42,804.82 766.77,801.57 768.62,799.13 C771.75,795.04 772.00,794.17 772.00,787.36 C772.00,781.21 771.55,779.20 769.27,775.11 C764.10,765.85 752.95,761.82 742.39,765.41 C736.60,767.37 734.49,769.05 730.60,774.77 C727.99,778.62 727.71,779.79 727.84,786.56 C728.00,794.87 729.24,798.08 734.20,803.04 C741.82,810.66 753.00,812.04 761.19,806.37 Z M1308.78,808.45 C1316.48,805.24 1322.58,796.85 1323.67,787.95 C1324.50,781.18 1319.94,772.70 1312.95,768.00 C1308.30,764.89 1307.02,764.51 1301.12,764.50 C1292.17,764.50 1290.06,765.25 1285.22,770.13 C1281.08,774.32 1277.99,781.08 1278.01,785.93 C1278.03,789.88 1280.70,797.80 1283.01,800.73 C1289.26,808.69 1300.29,811.99 1308.78,808.45 Z M1586.91,626.88 C1591.02,625.45 1595.00,619.30 1595.00,614.39 C1595.00,604.30 1582.92,597.35 1575.51,603.17 C1570.29,607.28 1568.69,614.62 1571.54,621.44 C1573.88,627.05 1580.11,629.25 1586.91,626.88 Z M477.25,622.82 C481.02,618.37 481.07,611.86 477.37,606.39 C473.95,601.32 473.42,601.03 467.45,601.02 C462.99,601.00 462.00,601.41 459.05,604.44 C456.42,607.16 455.63,608.90 455.32,612.69 C454.83,618.48 456.30,621.60 461.01,624.81 C463.93,626.80 465.32,627.09 469.50,626.63 C473.55,626.18 475.02,625.45 477.25,622.82 Z M671.09,488.45 C681.56,483.04 679.37,467.32 667.74,464.46 C662.51,463.17 658.17,464.78 654.97,469.20 C649.67,476.52 651.77,484.17 660.22,488.34 C664.37,490.38 667.30,490.41 671.09,488.45 Z M1392.47,485.90 C1395.75,483.01 1396.00,482.38 1396.00,477.00 C1396.00,472.03 1395.60,470.79 1393.17,468.18 C1388.42,463.09 1380.75,462.73 1375.39,467.34 C1373.21,469.22 1372.60,470.74 1372.22,475.32 C1371.77,480.85 1371.85,481.09 1375.76,484.99 C1379.27,488.50 1380.33,489.00 1384.35,489.00 C1388.05,489.00 1389.61,488.40 1392.47,485.90 Z M799.06,408.47 C802.61,406.63 807.00,400.02 807.00,396.50 C807.00,392.61 802.59,386.40 798.91,385.12 C791.09,382.39 785.73,384.79 783.60,391.98 C781.51,399.02 783.59,405.63 788.78,408.44 C792.31,410.36 795.39,410.37 799.06,408.47 Z M1263.14,406.36 C1269.11,400.65 1269.30,393.90 1263.66,387.75 C1258.11,381.69 1252.44,381.80 1246.42,388.08 C1244.06,390.54 1243.60,391.90 1243.55,396.43 C1243.51,400.85 1243.96,402.33 1246.00,404.54 C1251.45,410.45 1258.14,411.16 1263.14,406.36 Z M900.60,354.60 C903.55,351.65 904.00,350.55 904.00,346.23 C904.00,340.42 901.49,336.52 896.36,334.38 C886.22,330.14 877.76,337.23 879.45,348.53 C880.41,354.93 884.38,358.00 891.68,358.00 C896.62,358.00 897.55,357.65 900.60,354.60 Z M1165.62,356.55 C1166.76,355.76 1168.47,353.06 1169.43,350.55 C1171.08,346.23 1171.08,345.77 1169.43,341.45 C1168.47,338.95 1166.57,336.02 1165.21,334.95 C1162.17,332.56 1155.36,332.36 1152.21,334.57 C1149.59,336.40 1146.00,343.01 1146.00,346.01 C1146.00,349.01 1148.54,353.49 1151.61,355.91 C1154.79,358.41 1162.47,358.76 1165.62,356.55 Z M1033.86,292.63 C1036.79,289.97 1038.26,283.68 1037.02,279.08 C1034.69,270.43 1024.40,267.04 1017.01,272.50 C1012.45,275.86 1012.03,276.69 1012.02,282.55 C1012.00,286.96 1012.41,288.00 1015.25,290.71 C1017.04,292.41 1019.40,294.05 1020.50,294.34 C1024.18,295.32 1031.99,294.32 1033.86,292.63 Z"/>
</svg>
